%TF.GenerationSoftware,KiCad,Pcbnew,6.0.7-f9a2dced07~116~ubuntu22.04.1*%
%TF.CreationDate,2022-08-22T18:57:46+02:00*%
%TF.ProjectId,First,46697273-742e-46b6-9963-61645f706362,rev?*%
%TF.SameCoordinates,Original*%
%TF.FileFunction,Soldermask,Bot*%
%TF.FilePolarity,Negative*%
%FSLAX46Y46*%
G04 Gerber Fmt 4.6, Leading zero omitted, Abs format (unit mm)*
G04 Created by KiCad (PCBNEW 6.0.7-f9a2dced07~116~ubuntu22.04.1) date 2022-08-22 18:57:46*
%MOMM*%
%LPD*%
G01*
G04 APERTURE LIST*
G04 Aperture macros list*
%AMRoundRect*
0 Rectangle with rounded corners*
0 $1 Rounding radius*
0 $2 $3 $4 $5 $6 $7 $8 $9 X,Y pos of 4 corners*
0 Add a 4 corners polygon primitive as box body*
4,1,4,$2,$3,$4,$5,$6,$7,$8,$9,$2,$3,0*
0 Add four circle primitives for the rounded corners*
1,1,$1+$1,$2,$3*
1,1,$1+$1,$4,$5*
1,1,$1+$1,$6,$7*
1,1,$1+$1,$8,$9*
0 Add four rect primitives between the rounded corners*
20,1,$1+$1,$2,$3,$4,$5,0*
20,1,$1+$1,$4,$5,$6,$7,0*
20,1,$1+$1,$6,$7,$8,$9,0*
20,1,$1+$1,$8,$9,$2,$3,0*%
G04 Aperture macros list end*
%ADD10R,1.700000X1.700000*%
%ADD11O,1.700000X1.700000*%
%ADD12R,1.905000X2.000000*%
%ADD13O,1.905000X2.000000*%
%ADD14RoundRect,0.225000X-0.250000X0.225000X-0.250000X-0.225000X0.250000X-0.225000X0.250000X0.225000X0*%
%ADD15R,1.900000X1.200000*%
%ADD16C,1.450000*%
%ADD17R,1.900000X1.500000*%
%ADD18O,1.900000X1.200000*%
%ADD19R,1.350000X0.400000*%
%ADD20RoundRect,0.225000X-0.225000X-0.250000X0.225000X-0.250000X0.225000X0.250000X-0.225000X0.250000X0*%
G04 APERTURE END LIST*
D10*
%TO.C,J2*%
X145000000Y-70000000D03*
D11*
X145000000Y-67460000D03*
X145000000Y-64920000D03*
X145000000Y-62380000D03*
X145000000Y-59840000D03*
%TD*%
D10*
%TO.C,J5*%
X141000000Y-41070000D03*
D11*
X138460000Y-41070000D03*
X135920000Y-41070000D03*
X133380000Y-41070000D03*
X130840000Y-41070000D03*
%TD*%
D12*
%TO.C,U5*%
X104170000Y-46225000D03*
D13*
X101630000Y-46225000D03*
X99090000Y-46225000D03*
%TD*%
D10*
%TO.C,J4*%
X145000000Y-55000000D03*
D11*
X145000000Y-52460000D03*
X145000000Y-49920000D03*
X145000000Y-47380000D03*
X145000000Y-44840000D03*
%TD*%
D10*
%TO.C,J1*%
X141000000Y-73900000D03*
D11*
X138460000Y-73900000D03*
X135920000Y-73900000D03*
X133380000Y-73900000D03*
X130840000Y-73900000D03*
%TD*%
D14*
%TO.C,C17*%
X112000000Y-70925000D03*
X112000000Y-72475000D03*
%TD*%
%TO.C,C15*%
X122600000Y-72825000D03*
X122600000Y-74375000D03*
%TD*%
D15*
%TO.C,J3*%
X96380500Y-57385100D03*
D16*
X99080500Y-51985100D03*
D17*
X96380500Y-53485100D03*
X96380500Y-55485100D03*
D16*
X99080500Y-56985100D03*
D18*
X96380500Y-50985100D03*
X96380500Y-57985100D03*
D15*
X96380500Y-51585100D03*
D19*
X99080500Y-53185100D03*
X99080500Y-53835100D03*
X99080500Y-54485100D03*
X99080500Y-55135100D03*
X99080500Y-55785100D03*
%TD*%
D20*
%TO.C,C14*%
X131425000Y-61300000D03*
X132975000Y-61300000D03*
%TD*%
%TO.C,C16*%
X132225000Y-53600000D03*
X133775000Y-53600000D03*
%TD*%
M02*
