%TF.GenerationSoftware,KiCad,Pcbnew,6.0.7-f9a2dced07~116~ubuntu22.04.1*%
%TF.CreationDate,2022-08-22T18:57:46+02:00*%
%TF.ProjectId,First,46697273-742e-46b6-9963-61645f706362,rev?*%
%TF.SameCoordinates,Original*%
%TF.FileFunction,Copper,L2,Bot*%
%TF.FilePolarity,Positive*%
%FSLAX46Y46*%
G04 Gerber Fmt 4.6, Leading zero omitted, Abs format (unit mm)*
G04 Created by KiCad (PCBNEW 6.0.7-f9a2dced07~116~ubuntu22.04.1) date 2022-08-22 18:57:46*
%MOMM*%
%LPD*%
G01*
G04 APERTURE LIST*
G04 Aperture macros list*
%AMRoundRect*
0 Rectangle with rounded corners*
0 $1 Rounding radius*
0 $2 $3 $4 $5 $6 $7 $8 $9 X,Y pos of 4 corners*
0 Add a 4 corners polygon primitive as box body*
4,1,4,$2,$3,$4,$5,$6,$7,$8,$9,$2,$3,0*
0 Add four circle primitives for the rounded corners*
1,1,$1+$1,$2,$3*
1,1,$1+$1,$4,$5*
1,1,$1+$1,$6,$7*
1,1,$1+$1,$8,$9*
0 Add four rect primitives between the rounded corners*
20,1,$1+$1,$2,$3,$4,$5,0*
20,1,$1+$1,$4,$5,$6,$7,0*
20,1,$1+$1,$6,$7,$8,$9,0*
20,1,$1+$1,$8,$9,$2,$3,0*%
G04 Aperture macros list end*
%TA.AperFunction,ComponentPad*%
%ADD10R,1.700000X1.700000*%
%TD*%
%TA.AperFunction,ComponentPad*%
%ADD11O,1.700000X1.700000*%
%TD*%
%TA.AperFunction,ComponentPad*%
%ADD12R,1.905000X2.000000*%
%TD*%
%TA.AperFunction,ComponentPad*%
%ADD13O,1.905000X2.000000*%
%TD*%
%TA.AperFunction,SMDPad,CuDef*%
%ADD14RoundRect,0.225000X-0.250000X0.225000X-0.250000X-0.225000X0.250000X-0.225000X0.250000X0.225000X0*%
%TD*%
%TA.AperFunction,SMDPad,CuDef*%
%ADD15R,1.900000X1.200000*%
%TD*%
%TA.AperFunction,ComponentPad*%
%ADD16C,1.450000*%
%TD*%
%TA.AperFunction,SMDPad,CuDef*%
%ADD17R,1.900000X1.500000*%
%TD*%
%TA.AperFunction,ComponentPad*%
%ADD18O,1.900000X1.200000*%
%TD*%
%TA.AperFunction,SMDPad,CuDef*%
%ADD19R,1.350000X0.400000*%
%TD*%
%TA.AperFunction,SMDPad,CuDef*%
%ADD20RoundRect,0.225000X-0.225000X-0.250000X0.225000X-0.250000X0.225000X0.250000X-0.225000X0.250000X0*%
%TD*%
%TA.AperFunction,ViaPad*%
%ADD21C,0.800000*%
%TD*%
%TA.AperFunction,Conductor*%
%ADD22C,0.500000*%
%TD*%
%TA.AperFunction,Conductor*%
%ADD23C,0.200000*%
%TD*%
G04 APERTURE END LIST*
D10*
%TO.P,J2,1,Pin_1*%
%TO.N,GND*%
X145000000Y-70000000D03*
D11*
%TO.P,J2,2,Pin_2*%
%TO.N,/CTS_1*%
X145000000Y-67460000D03*
%TO.P,J2,3,Pin_3*%
%TO.N,/RTS_1*%
X145000000Y-64920000D03*
%TO.P,J2,4,Pin_4*%
%TO.N,/RX_1*%
X145000000Y-62380000D03*
%TO.P,J2,5,Pin_5*%
%TO.N,/TX_1*%
X145000000Y-59840000D03*
%TD*%
D10*
%TO.P,J5,1,Pin_1*%
%TO.N,GND*%
X141000000Y-41070000D03*
D11*
%TO.P,J5,2,Pin_2*%
%TO.N,/CTS_3*%
X138460000Y-41070000D03*
%TO.P,J5,3,Pin_3*%
%TO.N,/RTS_3*%
X135920000Y-41070000D03*
%TO.P,J5,4,Pin_4*%
%TO.N,/RX_3*%
X133380000Y-41070000D03*
%TO.P,J5,5,Pin_5*%
%TO.N,/TX_3*%
X130840000Y-41070000D03*
%TD*%
D12*
%TO.P,U5,1,ADJ/GND*%
%TO.N,GND*%
X104170000Y-46225000D03*
D13*
%TO.P,U5,2,OUT*%
%TO.N,+3V3*%
X101630000Y-46225000D03*
%TO.P,U5,3,IN*%
%TO.N,VBUS*%
X99090000Y-46225000D03*
%TD*%
D10*
%TO.P,J4,1,Pin_1*%
%TO.N,GND*%
X145000000Y-55000000D03*
D11*
%TO.P,J4,2,Pin_2*%
%TO.N,/CTS_2*%
X145000000Y-52460000D03*
%TO.P,J4,3,Pin_3*%
%TO.N,/RTS_2*%
X145000000Y-49920000D03*
%TO.P,J4,4,Pin_4*%
%TO.N,/RX_2*%
X145000000Y-47380000D03*
%TO.P,J4,5,Pin_5*%
%TO.N,/TX_2*%
X145000000Y-44840000D03*
%TD*%
D10*
%TO.P,J1,1,Pin_1*%
%TO.N,GND*%
X141000000Y-73900000D03*
D11*
%TO.P,J1,2,Pin_2*%
%TO.N,/CTS_0*%
X138460000Y-73900000D03*
%TO.P,J1,3,Pin_3*%
%TO.N,/RTS_0*%
X135920000Y-73900000D03*
%TO.P,J1,4,Pin_4*%
%TO.N,/RX_0*%
X133380000Y-73900000D03*
%TO.P,J1,5,Pin_5*%
%TO.N,/TX_0*%
X130840000Y-73900000D03*
%TD*%
D14*
%TO.P,C17,1*%
%TO.N,VBUS*%
X112000000Y-70925000D03*
%TO.P,C17,2*%
%TO.N,GND*%
X112000000Y-72475000D03*
%TD*%
%TO.P,C15,1*%
%TO.N,VBUS*%
X122600000Y-72825000D03*
%TO.P,C15,2*%
%TO.N,GND*%
X122600000Y-74375000D03*
%TD*%
D15*
%TO.P,J3,6,Shield*%
%TO.N,GND*%
X96380500Y-57385100D03*
D16*
X99080500Y-51985100D03*
D17*
X96380500Y-53485100D03*
X96380500Y-55485100D03*
D16*
X99080500Y-56985100D03*
D18*
X96380500Y-50985100D03*
X96380500Y-57985100D03*
D15*
X96380500Y-51585100D03*
D19*
%TO.P,J3,5,GND*%
X99080500Y-53185100D03*
%TO.P,J3,4,ID*%
%TO.N,unconnected-(J3-Pad4)*%
X99080500Y-53835100D03*
%TO.P,J3,3,D+*%
%TO.N,/USB_IN+*%
X99080500Y-54485100D03*
%TO.P,J3,2,D-*%
%TO.N,/USB_IN-*%
X99080500Y-55135100D03*
%TO.P,J3,1,VBUS*%
%TO.N,VBUS*%
X99080500Y-55785100D03*
%TD*%
D20*
%TO.P,C14,1*%
%TO.N,VBUS*%
X131425000Y-61300000D03*
%TO.P,C14,2*%
%TO.N,GND*%
X132975000Y-61300000D03*
%TD*%
%TO.P,C16,1*%
%TO.N,VBUS*%
X132225000Y-53600000D03*
%TO.P,C16,2*%
%TO.N,GND*%
X133775000Y-53600000D03*
%TD*%
D21*
%TO.N,GND*%
X126238000Y-76962000D03*
X134112000Y-77470000D03*
X136144000Y-57150000D03*
X115062000Y-58928000D03*
X117094000Y-51308000D03*
X129794000Y-45466000D03*
X136398000Y-72390000D03*
X105156000Y-62738000D03*
X135890000Y-66802000D03*
X111760000Y-51816000D03*
X112776000Y-39370000D03*
X139954000Y-54610000D03*
X125984000Y-52070000D03*
X137922000Y-38100000D03*
X134500000Y-61200000D03*
X122174000Y-66802000D03*
X131064000Y-57912000D03*
X99822000Y-42418000D03*
X128016000Y-59182000D03*
X148844000Y-56134000D03*
X136500000Y-45800000D03*
X128778000Y-52578000D03*
X139446000Y-43434000D03*
X119380000Y-65278000D03*
X141986000Y-69850000D03*
X106172000Y-48768000D03*
X112014000Y-48768000D03*
X130302000Y-63246000D03*
X139446000Y-58166000D03*
X129794000Y-54102000D03*
X110490000Y-68326000D03*
X125222000Y-47752000D03*
X103886000Y-66548000D03*
X127254000Y-42926000D03*
X123444000Y-69342000D03*
X106172000Y-39370000D03*
X148082000Y-76454000D03*
X125200000Y-73400000D03*
X118364000Y-57912000D03*
X115824000Y-71120000D03*
X117856000Y-39624000D03*
X123952000Y-50038000D03*
X122174000Y-42672000D03*
X148082000Y-64770000D03*
X110744000Y-61468000D03*
X132080000Y-50546000D03*
X116078000Y-46736000D03*
X99822000Y-74422000D03*
X125476000Y-39370000D03*
X118356327Y-62752538D03*
X111200000Y-74800000D03*
X128270000Y-55626000D03*
X123698000Y-65278000D03*
X135636000Y-43942000D03*
X125222000Y-63500000D03*
X99314000Y-64008000D03*
X137922000Y-62230000D03*
X99822000Y-69342000D03*
X104648000Y-71882000D03*
X127762000Y-46482000D03*
X119380000Y-68326000D03*
X121158000Y-70358000D03*
X103124000Y-57912000D03*
X107950000Y-43942000D03*
X127000000Y-66294000D03*
X127000000Y-70358000D03*
X127508000Y-61976000D03*
X128900000Y-73300000D03*
X107950000Y-58420000D03*
X117348000Y-76200000D03*
X107950000Y-77216000D03*
X130810000Y-66802000D03*
X131900000Y-71900000D03*
X117348000Y-44450000D03*
X120904000Y-50038000D03*
X113284000Y-44704000D03*
X115824000Y-56134000D03*
X147574000Y-41910000D03*
%TO.N,VBUS*%
X130214000Y-61302000D03*
X131064000Y-53594000D03*
X123698000Y-71794000D03*
X112014000Y-69850000D03*
%TO.N,+3V3*%
X110490000Y-56134000D03*
X109090000Y-49970000D03*
X119100000Y-49970000D03*
X104500000Y-49700000D03*
%TO.N,/USB_IN-*%
X105000000Y-55309438D03*
%TO.N,/USB_IN+*%
X105000000Y-54309935D03*
%TD*%
D22*
%TO.N,VBUS*%
X99090000Y-46225000D02*
X97905500Y-47409500D01*
X97905500Y-47409500D02*
X97905500Y-55487500D01*
X97905500Y-55487500D02*
X98203100Y-55785100D01*
X98203100Y-55785100D02*
X99080500Y-55785100D01*
X99080500Y-55785100D02*
X102199182Y-55785100D01*
%TO.N,GND*%
X102008900Y-53185100D02*
X102870000Y-52324000D01*
X99080500Y-53185100D02*
X102008900Y-53185100D01*
X99080500Y-53185100D02*
X99080500Y-51985100D01*
D23*
%TO.N,/USB_IN+*%
X100093001Y-54485100D02*
X100193001Y-54585100D01*
X99080500Y-54485100D02*
X100093001Y-54485100D01*
X100193001Y-54585100D02*
X100584024Y-54585100D01*
%TO.N,/USB_IN-*%
X99080500Y-55135100D02*
X100093001Y-55135100D01*
X100093001Y-55135100D02*
X100193001Y-55035100D01*
X100193001Y-55035100D02*
X100584024Y-55035100D01*
D22*
%TO.N,VBUS*%
X130216000Y-61300000D02*
X130214000Y-61302000D01*
X112014000Y-65599918D02*
X112014000Y-69850000D01*
X130048000Y-61468000D02*
X130214000Y-61302000D01*
X131070000Y-53600000D02*
X131064000Y-53594000D01*
X122600000Y-72825000D02*
X122667000Y-72825000D01*
X130214000Y-61302000D02*
X130214000Y-54884082D01*
X102199182Y-55785100D02*
X112014000Y-65599918D01*
X121391918Y-71794000D02*
X123698000Y-71794000D01*
X132225000Y-53600000D02*
X131070000Y-53600000D01*
X112014000Y-69850000D02*
X112014000Y-70104000D01*
X123698000Y-71794000D02*
X127850000Y-67642000D01*
X131064000Y-54034082D02*
X131064000Y-53594000D01*
X127850000Y-67642000D02*
X127850000Y-63666000D01*
X112000000Y-69864000D02*
X112014000Y-69850000D01*
X119701918Y-70104000D02*
X121391918Y-71794000D01*
X130214000Y-54884082D02*
X131064000Y-54034082D01*
X127850000Y-63666000D02*
X130048000Y-61468000D01*
X122667000Y-72825000D02*
X123698000Y-71794000D01*
X131425000Y-61300000D02*
X130216000Y-61300000D01*
X112000000Y-70925000D02*
X112000000Y-69864000D01*
X112014000Y-70104000D02*
X119701918Y-70104000D01*
%TO.N,+3V3*%
X101630000Y-46225000D02*
X101630000Y-47630000D01*
X104470000Y-49970000D02*
X109090000Y-49970000D01*
X109090000Y-49970000D02*
X109090000Y-54734000D01*
X109090000Y-54734000D02*
X110490000Y-56134000D01*
X109090000Y-49970000D02*
X119100000Y-49970000D01*
X101630000Y-47630000D02*
X103970000Y-49970000D01*
X104500000Y-49940000D02*
X104470000Y-49970000D01*
X103970000Y-49970000D02*
X104470000Y-49970000D01*
X104500000Y-49700000D02*
X104500000Y-49940000D01*
D23*
%TO.N,/USB_IN-*%
X104725282Y-55034720D02*
X100610000Y-55034719D01*
X105000000Y-55309438D02*
X104725282Y-55034720D01*
%TO.N,/USB_IN+*%
X105000000Y-54310000D02*
X104725282Y-54584718D01*
X104725282Y-54584718D02*
X100610000Y-54584719D01*
%TD*%
%TA.AperFunction,Conductor*%
%TO.N,GND*%
G36*
X149801621Y-37612502D02*
G01*
X149848114Y-37666158D01*
X149859500Y-37718500D01*
X149859500Y-77597500D01*
X149839498Y-77665621D01*
X149785842Y-77712114D01*
X149733500Y-77723500D01*
X95376500Y-77723500D01*
X95308379Y-77703498D01*
X95261886Y-77649842D01*
X95250500Y-77597500D01*
X95250500Y-74645438D01*
X121617000Y-74645438D01*
X121617337Y-74651953D01*
X121626894Y-74744057D01*
X121629788Y-74757456D01*
X121679381Y-74906107D01*
X121685555Y-74919286D01*
X121767788Y-75052173D01*
X121776824Y-75063574D01*
X121887429Y-75173986D01*
X121898840Y-75182998D01*
X122031880Y-75265004D01*
X122045061Y-75271151D01*
X122193814Y-75320491D01*
X122207190Y-75323358D01*
X122298097Y-75332672D01*
X122304513Y-75333000D01*
X122327885Y-75333000D01*
X122343124Y-75328525D01*
X122344329Y-75327135D01*
X122346000Y-75319452D01*
X122346000Y-75314885D01*
X122854000Y-75314885D01*
X122858475Y-75330124D01*
X122859865Y-75331329D01*
X122867548Y-75333000D01*
X122895438Y-75333000D01*
X122901953Y-75332663D01*
X122994057Y-75323106D01*
X123007456Y-75320212D01*
X123156107Y-75270619D01*
X123169286Y-75264445D01*
X123302173Y-75182212D01*
X123313574Y-75173176D01*
X123423986Y-75062571D01*
X123432998Y-75051160D01*
X123515004Y-74918120D01*
X123521151Y-74904939D01*
X123570491Y-74756186D01*
X123573358Y-74742810D01*
X123582672Y-74651903D01*
X123582929Y-74646874D01*
X123578525Y-74631876D01*
X123577135Y-74630671D01*
X123569452Y-74629000D01*
X122872115Y-74629000D01*
X122856876Y-74633475D01*
X122855671Y-74634865D01*
X122854000Y-74642548D01*
X122854000Y-75314885D01*
X122346000Y-75314885D01*
X122346000Y-74647115D01*
X122341525Y-74631876D01*
X122340135Y-74630671D01*
X122332452Y-74629000D01*
X121635115Y-74629000D01*
X121619876Y-74633475D01*
X121618671Y-74634865D01*
X121617000Y-74642548D01*
X121617000Y-74645438D01*
X95250500Y-74645438D01*
X95250500Y-72745438D01*
X111017000Y-72745438D01*
X111017337Y-72751953D01*
X111026894Y-72844057D01*
X111029788Y-72857456D01*
X111079381Y-73006107D01*
X111085555Y-73019286D01*
X111167788Y-73152173D01*
X111176824Y-73163574D01*
X111287429Y-73273986D01*
X111298840Y-73282998D01*
X111431880Y-73365004D01*
X111445061Y-73371151D01*
X111593814Y-73420491D01*
X111607190Y-73423358D01*
X111698097Y-73432672D01*
X111704513Y-73433000D01*
X111727885Y-73433000D01*
X111743124Y-73428525D01*
X111744329Y-73427135D01*
X111746000Y-73419452D01*
X111746000Y-73414885D01*
X112254000Y-73414885D01*
X112258475Y-73430124D01*
X112259865Y-73431329D01*
X112267548Y-73433000D01*
X112295438Y-73433000D01*
X112301953Y-73432663D01*
X112394057Y-73423106D01*
X112407456Y-73420212D01*
X112556107Y-73370619D01*
X112569286Y-73364445D01*
X112702173Y-73282212D01*
X112713574Y-73273176D01*
X112823986Y-73162571D01*
X112832998Y-73151160D01*
X112915004Y-73018120D01*
X112921151Y-73004939D01*
X112970491Y-72856186D01*
X112973358Y-72842810D01*
X112982672Y-72751903D01*
X112982929Y-72746874D01*
X112978525Y-72731876D01*
X112977135Y-72730671D01*
X112969452Y-72729000D01*
X112272115Y-72729000D01*
X112256876Y-72733475D01*
X112255671Y-72734865D01*
X112254000Y-72742548D01*
X112254000Y-73414885D01*
X111746000Y-73414885D01*
X111746000Y-72747115D01*
X111741525Y-72731876D01*
X111740135Y-72730671D01*
X111732452Y-72729000D01*
X111035115Y-72729000D01*
X111019876Y-72733475D01*
X111018671Y-72734865D01*
X111017000Y-72742548D01*
X111017000Y-72745438D01*
X95250500Y-72745438D01*
X95250500Y-59031712D01*
X95270502Y-58963591D01*
X95324158Y-58917098D01*
X95394432Y-58906994D01*
X95444848Y-58925860D01*
X95513241Y-58970021D01*
X95523845Y-58975517D01*
X95708812Y-59050061D01*
X95720270Y-59053455D01*
X95917428Y-59091957D01*
X95926291Y-59093034D01*
X95929000Y-59093100D01*
X96108385Y-59093100D01*
X96123624Y-59088625D01*
X96124829Y-59087235D01*
X96126500Y-59079552D01*
X96126500Y-59074985D01*
X96634500Y-59074985D01*
X96638975Y-59090224D01*
X96640365Y-59091429D01*
X96648048Y-59093100D01*
X96780332Y-59093100D01*
X96786308Y-59092815D01*
X96934994Y-59078629D01*
X96946728Y-59076370D01*
X97138099Y-59020228D01*
X97149175Y-59015798D01*
X97326478Y-58924481D01*
X97336524Y-58918031D01*
X97493357Y-58794838D01*
X97502006Y-58786601D01*
X97632712Y-58635977D01*
X97639647Y-58626253D01*
X97739510Y-58453633D01*
X97744484Y-58442769D01*
X97809907Y-58254373D01*
X97810148Y-58253384D01*
X97808680Y-58243092D01*
X97795115Y-58239100D01*
X96652615Y-58239100D01*
X96637376Y-58243575D01*
X96636171Y-58244965D01*
X96634500Y-58252648D01*
X96634500Y-59074985D01*
X96126500Y-59074985D01*
X96126500Y-58017311D01*
X98412844Y-58017311D01*
X98422140Y-58029326D01*
X98457137Y-58053831D01*
X98466632Y-58059314D01*
X98652196Y-58145844D01*
X98662488Y-58149590D01*
X98860259Y-58202582D01*
X98871054Y-58204485D01*
X99075025Y-58222331D01*
X99085975Y-58222331D01*
X99289946Y-58204485D01*
X99300741Y-58202582D01*
X99498512Y-58149590D01*
X99508804Y-58145844D01*
X99694368Y-58059314D01*
X99703863Y-58053831D01*
X99739697Y-58028740D01*
X99748073Y-58018261D01*
X99741005Y-58004815D01*
X99093312Y-57357122D01*
X99079368Y-57349508D01*
X99077535Y-57349639D01*
X99070920Y-57353890D01*
X98419274Y-58005536D01*
X98412844Y-58017311D01*
X96126500Y-58017311D01*
X96126500Y-57712985D01*
X96634500Y-57712985D01*
X96638975Y-57728224D01*
X96640365Y-57729429D01*
X96648048Y-57731100D01*
X97820385Y-57731100D01*
X97835624Y-57726625D01*
X97836829Y-57725235D01*
X97838291Y-57718513D01*
X97872316Y-57656200D01*
X97934628Y-57622175D01*
X98005443Y-57627239D01*
X98040083Y-57646873D01*
X98047339Y-57652673D01*
X98060785Y-57645605D01*
X98991405Y-56714985D01*
X99053717Y-56680959D01*
X99124532Y-56686024D01*
X99169595Y-56714985D01*
X100100936Y-57646326D01*
X100112711Y-57652756D01*
X100124726Y-57643460D01*
X100149231Y-57608463D01*
X100154714Y-57598968D01*
X100241244Y-57413404D01*
X100244990Y-57403112D01*
X100297982Y-57205341D01*
X100299885Y-57194546D01*
X100317731Y-56990575D01*
X100317731Y-56979625D01*
X100299885Y-56775654D01*
X100297981Y-56764856D01*
X100281196Y-56702210D01*
X100282886Y-56631234D01*
X100322681Y-56572438D01*
X100387945Y-56544491D01*
X100402903Y-56543600D01*
X101832811Y-56543600D01*
X101900932Y-56563602D01*
X101921906Y-56580505D01*
X111218595Y-65877194D01*
X111252621Y-65939506D01*
X111255500Y-65966289D01*
X111255500Y-69313001D01*
X111238619Y-69376000D01*
X111179473Y-69478444D01*
X111120458Y-69660072D01*
X111100496Y-69850000D01*
X111120458Y-70039928D01*
X111122498Y-70046206D01*
X111162759Y-70170117D01*
X111164787Y-70241084D01*
X111150186Y-70275169D01*
X111080698Y-70387899D01*
X111026851Y-70550243D01*
X111016500Y-70651268D01*
X111016500Y-71198732D01*
X111027113Y-71301019D01*
X111029295Y-71307559D01*
X111078537Y-71455153D01*
X111081244Y-71463268D01*
X111171248Y-71608713D01*
X111176430Y-71613886D01*
X111180977Y-71619623D01*
X111179170Y-71621055D01*
X111207902Y-71673575D01*
X111202892Y-71744395D01*
X111179501Y-71780853D01*
X111180552Y-71781683D01*
X111167002Y-71798840D01*
X111084996Y-71931880D01*
X111078849Y-71945061D01*
X111029509Y-72093814D01*
X111026642Y-72107190D01*
X111017328Y-72198097D01*
X111017071Y-72203126D01*
X111021475Y-72218124D01*
X111022865Y-72219329D01*
X111030548Y-72221000D01*
X112964885Y-72221000D01*
X112980124Y-72216525D01*
X112981329Y-72215135D01*
X112983000Y-72207452D01*
X112983000Y-72204562D01*
X112982663Y-72198047D01*
X112973106Y-72105943D01*
X112970212Y-72092544D01*
X112920619Y-71943893D01*
X112914445Y-71930714D01*
X112832212Y-71797827D01*
X112818629Y-71780689D01*
X112820559Y-71779159D01*
X112792097Y-71727120D01*
X112797113Y-71656301D01*
X112820799Y-71619383D01*
X112819843Y-71618628D01*
X112824381Y-71612882D01*
X112829552Y-71607702D01*
X112833393Y-71601471D01*
X112915462Y-71468331D01*
X112915463Y-71468329D01*
X112919302Y-71462101D01*
X112973149Y-71299757D01*
X112983500Y-71198732D01*
X112983500Y-70988500D01*
X113003502Y-70920379D01*
X113057158Y-70873886D01*
X113109500Y-70862500D01*
X119335547Y-70862500D01*
X119403668Y-70882502D01*
X119424642Y-70899405D01*
X120808148Y-72282911D01*
X120820534Y-72297323D01*
X120829067Y-72308918D01*
X120829072Y-72308923D01*
X120833410Y-72314818D01*
X120838988Y-72319557D01*
X120838991Y-72319560D01*
X120873686Y-72349035D01*
X120881202Y-72355965D01*
X120886897Y-72361660D01*
X120889779Y-72363940D01*
X120909169Y-72379281D01*
X120912573Y-72382072D01*
X120962621Y-72424591D01*
X120968203Y-72429333D01*
X120974719Y-72432661D01*
X120979768Y-72436028D01*
X120984897Y-72439195D01*
X120990634Y-72443734D01*
X121056793Y-72474655D01*
X121060687Y-72476558D01*
X121125726Y-72509769D01*
X121132834Y-72511508D01*
X121138477Y-72513607D01*
X121144240Y-72515524D01*
X121150868Y-72518622D01*
X121158030Y-72520112D01*
X121158031Y-72520112D01*
X121222330Y-72533486D01*
X121226614Y-72534456D01*
X121297528Y-72551808D01*
X121303130Y-72552156D01*
X121303133Y-72552156D01*
X121308682Y-72552500D01*
X121308680Y-72552536D01*
X121312673Y-72552775D01*
X121316865Y-72553149D01*
X121324033Y-72554640D01*
X121401438Y-72552546D01*
X121404846Y-72552500D01*
X121490500Y-72552500D01*
X121558621Y-72572502D01*
X121605114Y-72626158D01*
X121616500Y-72678500D01*
X121616500Y-73098732D01*
X121627113Y-73201019D01*
X121629295Y-73207559D01*
X121678537Y-73355153D01*
X121681244Y-73363268D01*
X121685096Y-73369492D01*
X121685096Y-73369493D01*
X121720766Y-73427135D01*
X121771248Y-73508713D01*
X121776430Y-73513886D01*
X121780977Y-73519623D01*
X121779170Y-73521055D01*
X121807902Y-73573575D01*
X121802892Y-73644395D01*
X121779501Y-73680853D01*
X121780552Y-73681683D01*
X121767002Y-73698840D01*
X121684996Y-73831880D01*
X121678849Y-73845061D01*
X121629509Y-73993814D01*
X121626642Y-74007190D01*
X121617328Y-74098097D01*
X121617071Y-74103126D01*
X121621475Y-74118124D01*
X121622865Y-74119329D01*
X121630548Y-74121000D01*
X123564885Y-74121000D01*
X123580124Y-74116525D01*
X123581329Y-74115135D01*
X123583000Y-74107452D01*
X123583000Y-74104562D01*
X123582663Y-74098047D01*
X123573106Y-74005943D01*
X123570212Y-73992544D01*
X123528226Y-73866695D01*
X129477251Y-73866695D01*
X129490110Y-74089715D01*
X129491247Y-74094761D01*
X129491248Y-74094767D01*
X129505606Y-74158475D01*
X129539222Y-74307639D01*
X129623266Y-74514616D01*
X129674942Y-74598944D01*
X129737291Y-74700688D01*
X129739987Y-74705088D01*
X129886250Y-74873938D01*
X130058126Y-75016632D01*
X130251000Y-75129338D01*
X130459692Y-75209030D01*
X130464760Y-75210061D01*
X130464763Y-75210062D01*
X130572017Y-75231883D01*
X130678597Y-75253567D01*
X130683772Y-75253757D01*
X130683774Y-75253757D01*
X130896673Y-75261564D01*
X130896677Y-75261564D01*
X130901837Y-75261753D01*
X130906957Y-75261097D01*
X130906959Y-75261097D01*
X131118288Y-75234025D01*
X131118289Y-75234025D01*
X131123416Y-75233368D01*
X131128366Y-75231883D01*
X131332429Y-75170661D01*
X131332434Y-75170659D01*
X131337384Y-75169174D01*
X131537994Y-75070896D01*
X131719860Y-74941173D01*
X131878096Y-74783489D01*
X131937594Y-74700689D01*
X132008453Y-74602077D01*
X132009776Y-74603028D01*
X132056645Y-74559857D01*
X132126580Y-74547625D01*
X132192026Y-74575144D01*
X132219875Y-74606994D01*
X132279987Y-74705088D01*
X132426250Y-74873938D01*
X132598126Y-75016632D01*
X132791000Y-75129338D01*
X132999692Y-75209030D01*
X133004760Y-75210061D01*
X133004763Y-75210062D01*
X133112017Y-75231883D01*
X133218597Y-75253567D01*
X133223772Y-75253757D01*
X133223774Y-75253757D01*
X133436673Y-75261564D01*
X133436677Y-75261564D01*
X133441837Y-75261753D01*
X133446957Y-75261097D01*
X133446959Y-75261097D01*
X133658288Y-75234025D01*
X133658289Y-75234025D01*
X133663416Y-75233368D01*
X133668366Y-75231883D01*
X133872429Y-75170661D01*
X133872434Y-75170659D01*
X133877384Y-75169174D01*
X134077994Y-75070896D01*
X134259860Y-74941173D01*
X134418096Y-74783489D01*
X134477594Y-74700689D01*
X134548453Y-74602077D01*
X134549776Y-74603028D01*
X134596645Y-74559857D01*
X134666580Y-74547625D01*
X134732026Y-74575144D01*
X134759875Y-74606994D01*
X134819987Y-74705088D01*
X134966250Y-74873938D01*
X135138126Y-75016632D01*
X135331000Y-75129338D01*
X135539692Y-75209030D01*
X135544760Y-75210061D01*
X135544763Y-75210062D01*
X135652017Y-75231883D01*
X135758597Y-75253567D01*
X135763772Y-75253757D01*
X135763774Y-75253757D01*
X135976673Y-75261564D01*
X135976677Y-75261564D01*
X135981837Y-75261753D01*
X135986957Y-75261097D01*
X135986959Y-75261097D01*
X136198288Y-75234025D01*
X136198289Y-75234025D01*
X136203416Y-75233368D01*
X136208366Y-75231883D01*
X136412429Y-75170661D01*
X136412434Y-75170659D01*
X136417384Y-75169174D01*
X136617994Y-75070896D01*
X136799860Y-74941173D01*
X136958096Y-74783489D01*
X137017594Y-74700689D01*
X137088453Y-74602077D01*
X137089776Y-74603028D01*
X137136645Y-74559857D01*
X137206580Y-74547625D01*
X137272026Y-74575144D01*
X137299875Y-74606994D01*
X137359987Y-74705088D01*
X137506250Y-74873938D01*
X137678126Y-75016632D01*
X137871000Y-75129338D01*
X138079692Y-75209030D01*
X138084760Y-75210061D01*
X138084763Y-75210062D01*
X138192017Y-75231883D01*
X138298597Y-75253567D01*
X138303772Y-75253757D01*
X138303774Y-75253757D01*
X138516673Y-75261564D01*
X138516677Y-75261564D01*
X138521837Y-75261753D01*
X138526957Y-75261097D01*
X138526959Y-75261097D01*
X138738288Y-75234025D01*
X138738289Y-75234025D01*
X138743416Y-75233368D01*
X138748366Y-75231883D01*
X138952429Y-75170661D01*
X138952434Y-75170659D01*
X138957384Y-75169174D01*
X139157994Y-75070896D01*
X139339860Y-74941173D01*
X139407331Y-74873938D01*
X139448479Y-74832933D01*
X139510851Y-74799017D01*
X139581658Y-74804205D01*
X139638419Y-74846851D01*
X139655401Y-74877954D01*
X139696676Y-74988054D01*
X139705214Y-75003649D01*
X139781715Y-75105724D01*
X139794276Y-75118285D01*
X139896351Y-75194786D01*
X139911946Y-75203324D01*
X140032394Y-75248478D01*
X140047649Y-75252105D01*
X140098514Y-75257631D01*
X140105328Y-75258000D01*
X140727885Y-75258000D01*
X140743124Y-75253525D01*
X140744329Y-75252135D01*
X140746000Y-75244452D01*
X140746000Y-75239884D01*
X141254000Y-75239884D01*
X141258475Y-75255123D01*
X141259865Y-75256328D01*
X141267548Y-75257999D01*
X141894669Y-75257999D01*
X141901490Y-75257629D01*
X141952352Y-75252105D01*
X141967604Y-75248479D01*
X142088054Y-75203324D01*
X142103649Y-75194786D01*
X142205724Y-75118285D01*
X142218285Y-75105724D01*
X142294786Y-75003649D01*
X142303324Y-74988054D01*
X142348478Y-74867606D01*
X142352105Y-74852351D01*
X142357631Y-74801486D01*
X142358000Y-74794672D01*
X142358000Y-74172115D01*
X142353525Y-74156876D01*
X142352135Y-74155671D01*
X142344452Y-74154000D01*
X141272115Y-74154000D01*
X141256876Y-74158475D01*
X141255671Y-74159865D01*
X141254000Y-74167548D01*
X141254000Y-75239884D01*
X140746000Y-75239884D01*
X140746000Y-73627885D01*
X141254000Y-73627885D01*
X141258475Y-73643124D01*
X141259865Y-73644329D01*
X141267548Y-73646000D01*
X142339884Y-73646000D01*
X142355123Y-73641525D01*
X142356328Y-73640135D01*
X142357999Y-73632452D01*
X142357999Y-73005331D01*
X142357629Y-72998510D01*
X142352105Y-72947648D01*
X142348479Y-72932396D01*
X142303324Y-72811946D01*
X142294786Y-72796351D01*
X142218285Y-72694276D01*
X142205724Y-72681715D01*
X142103649Y-72605214D01*
X142088054Y-72596676D01*
X141967606Y-72551522D01*
X141952351Y-72547895D01*
X141901486Y-72542369D01*
X141894672Y-72542000D01*
X141272115Y-72542000D01*
X141256876Y-72546475D01*
X141255671Y-72547865D01*
X141254000Y-72555548D01*
X141254000Y-73627885D01*
X140746000Y-73627885D01*
X140746000Y-72560116D01*
X140741525Y-72544877D01*
X140740135Y-72543672D01*
X140732452Y-72542001D01*
X140105331Y-72542001D01*
X140098510Y-72542371D01*
X140047648Y-72547895D01*
X140032396Y-72551521D01*
X139911946Y-72596676D01*
X139896351Y-72605214D01*
X139794276Y-72681715D01*
X139781715Y-72694276D01*
X139705214Y-72796351D01*
X139696676Y-72811946D01*
X139655297Y-72922322D01*
X139612655Y-72979087D01*
X139546093Y-73003786D01*
X139476744Y-72988578D01*
X139444121Y-72962891D01*
X139393151Y-72906876D01*
X139393145Y-72906870D01*
X139389670Y-72903051D01*
X139385619Y-72899852D01*
X139385615Y-72899848D01*
X139218414Y-72767800D01*
X139218410Y-72767798D01*
X139214359Y-72764598D01*
X139182689Y-72747115D01*
X139149873Y-72729000D01*
X139018789Y-72656638D01*
X139013920Y-72654914D01*
X139013916Y-72654912D01*
X138813087Y-72583795D01*
X138813083Y-72583794D01*
X138808212Y-72582069D01*
X138803119Y-72581162D01*
X138803116Y-72581161D01*
X138593373Y-72543800D01*
X138593367Y-72543799D01*
X138588284Y-72542894D01*
X138514452Y-72541992D01*
X138370081Y-72540228D01*
X138370079Y-72540228D01*
X138364911Y-72540165D01*
X138144091Y-72573955D01*
X137931756Y-72643357D01*
X137901443Y-72659137D01*
X137764028Y-72730671D01*
X137733607Y-72746507D01*
X137729474Y-72749610D01*
X137729471Y-72749612D01*
X137559100Y-72877530D01*
X137554965Y-72880635D01*
X137400629Y-73042138D01*
X137293201Y-73199621D01*
X137238293Y-73244621D01*
X137167768Y-73252792D01*
X137104021Y-73221538D01*
X137083324Y-73197054D01*
X137002822Y-73072617D01*
X137002820Y-73072614D01*
X137000014Y-73068277D01*
X136849670Y-72903051D01*
X136845619Y-72899852D01*
X136845615Y-72899848D01*
X136678414Y-72767800D01*
X136678410Y-72767798D01*
X136674359Y-72764598D01*
X136642689Y-72747115D01*
X136609873Y-72729000D01*
X136478789Y-72656638D01*
X136473920Y-72654914D01*
X136473916Y-72654912D01*
X136273087Y-72583795D01*
X136273083Y-72583794D01*
X136268212Y-72582069D01*
X136263119Y-72581162D01*
X136263116Y-72581161D01*
X136053373Y-72543800D01*
X136053367Y-72543799D01*
X136048284Y-72542894D01*
X135974452Y-72541992D01*
X135830081Y-72540228D01*
X135830079Y-72540228D01*
X135824911Y-72540165D01*
X135604091Y-72573955D01*
X135391756Y-72643357D01*
X135361443Y-72659137D01*
X135224028Y-72730671D01*
X135193607Y-72746507D01*
X135189474Y-72749610D01*
X135189471Y-72749612D01*
X135019100Y-72877530D01*
X135014965Y-72880635D01*
X134860629Y-73042138D01*
X134753201Y-73199621D01*
X134698293Y-73244621D01*
X134627768Y-73252792D01*
X134564021Y-73221538D01*
X134543324Y-73197054D01*
X134462822Y-73072617D01*
X134462820Y-73072614D01*
X134460014Y-73068277D01*
X134309670Y-72903051D01*
X134305619Y-72899852D01*
X134305615Y-72899848D01*
X134138414Y-72767800D01*
X134138410Y-72767798D01*
X134134359Y-72764598D01*
X134102689Y-72747115D01*
X134069873Y-72729000D01*
X133938789Y-72656638D01*
X133933920Y-72654914D01*
X133933916Y-72654912D01*
X133733087Y-72583795D01*
X133733083Y-72583794D01*
X133728212Y-72582069D01*
X133723119Y-72581162D01*
X133723116Y-72581161D01*
X133513373Y-72543800D01*
X133513367Y-72543799D01*
X133508284Y-72542894D01*
X133434452Y-72541992D01*
X133290081Y-72540228D01*
X133290079Y-72540228D01*
X133284911Y-72540165D01*
X133064091Y-72573955D01*
X132851756Y-72643357D01*
X132821443Y-72659137D01*
X132684028Y-72730671D01*
X132653607Y-72746507D01*
X132649474Y-72749610D01*
X132649471Y-72749612D01*
X132479100Y-72877530D01*
X132474965Y-72880635D01*
X132320629Y-73042138D01*
X132213201Y-73199621D01*
X132158293Y-73244621D01*
X132087768Y-73252792D01*
X132024021Y-73221538D01*
X132003324Y-73197054D01*
X131922822Y-73072617D01*
X131922820Y-73072614D01*
X131920014Y-73068277D01*
X131769670Y-72903051D01*
X131765619Y-72899852D01*
X131765615Y-72899848D01*
X131598414Y-72767800D01*
X131598410Y-72767798D01*
X131594359Y-72764598D01*
X131562689Y-72747115D01*
X131529873Y-72729000D01*
X131398789Y-72656638D01*
X131393920Y-72654914D01*
X131393916Y-72654912D01*
X131193087Y-72583795D01*
X131193083Y-72583794D01*
X131188212Y-72582069D01*
X131183119Y-72581162D01*
X131183116Y-72581161D01*
X130973373Y-72543800D01*
X130973367Y-72543799D01*
X130968284Y-72542894D01*
X130894452Y-72541992D01*
X130750081Y-72540228D01*
X130750079Y-72540228D01*
X130744911Y-72540165D01*
X130524091Y-72573955D01*
X130311756Y-72643357D01*
X130281443Y-72659137D01*
X130144028Y-72730671D01*
X130113607Y-72746507D01*
X130109474Y-72749610D01*
X130109471Y-72749612D01*
X129939100Y-72877530D01*
X129934965Y-72880635D01*
X129780629Y-73042138D01*
X129654743Y-73226680D01*
X129628966Y-73282212D01*
X129564909Y-73420212D01*
X129560688Y-73429305D01*
X129500989Y-73644570D01*
X129477251Y-73866695D01*
X123528226Y-73866695D01*
X123520619Y-73843893D01*
X123514445Y-73830714D01*
X123432212Y-73697827D01*
X123418629Y-73680689D01*
X123420559Y-73679159D01*
X123392097Y-73627120D01*
X123397113Y-73556301D01*
X123420799Y-73519383D01*
X123419843Y-73518628D01*
X123424381Y-73512882D01*
X123429552Y-73507702D01*
X123519302Y-73362101D01*
X123573149Y-73199757D01*
X123583500Y-73098732D01*
X123583500Y-73033371D01*
X123603502Y-72965250D01*
X123620405Y-72944276D01*
X123854331Y-72710350D01*
X123917228Y-72676199D01*
X123973824Y-72664169D01*
X123973833Y-72664166D01*
X123980288Y-72662794D01*
X123994115Y-72656638D01*
X124148722Y-72587803D01*
X124148724Y-72587802D01*
X124154752Y-72585118D01*
X124160199Y-72581161D01*
X124215547Y-72540948D01*
X124309253Y-72472866D01*
X124414511Y-72355965D01*
X124432621Y-72335852D01*
X124432622Y-72335851D01*
X124437040Y-72330944D01*
X124503100Y-72216525D01*
X124529223Y-72171279D01*
X124529224Y-72171278D01*
X124532527Y-72165556D01*
X124587387Y-71996714D01*
X124618125Y-71946556D01*
X125670012Y-70894669D01*
X143642001Y-70894669D01*
X143642371Y-70901490D01*
X143647895Y-70952352D01*
X143651521Y-70967604D01*
X143696676Y-71088054D01*
X143705214Y-71103649D01*
X143781715Y-71205724D01*
X143794276Y-71218285D01*
X143896351Y-71294786D01*
X143911946Y-71303324D01*
X144032394Y-71348478D01*
X144047649Y-71352105D01*
X144098514Y-71357631D01*
X144105328Y-71358000D01*
X144727885Y-71358000D01*
X144743124Y-71353525D01*
X144744329Y-71352135D01*
X144746000Y-71344452D01*
X144746000Y-71339884D01*
X145254000Y-71339884D01*
X145258475Y-71355123D01*
X145259865Y-71356328D01*
X145267548Y-71357999D01*
X145894669Y-71357999D01*
X145901490Y-71357629D01*
X145952352Y-71352105D01*
X145967604Y-71348479D01*
X146088054Y-71303324D01*
X146103649Y-71294786D01*
X146205724Y-71218285D01*
X146218285Y-71205724D01*
X146294786Y-71103649D01*
X146303324Y-71088054D01*
X146348478Y-70967606D01*
X146352105Y-70952351D01*
X146357631Y-70901486D01*
X146358000Y-70894672D01*
X146358000Y-70272115D01*
X146353525Y-70256876D01*
X146352135Y-70255671D01*
X146344452Y-70254000D01*
X145272115Y-70254000D01*
X145256876Y-70258475D01*
X145255671Y-70259865D01*
X145254000Y-70267548D01*
X145254000Y-71339884D01*
X144746000Y-71339884D01*
X144746000Y-70272115D01*
X144741525Y-70256876D01*
X144740135Y-70255671D01*
X144732452Y-70254000D01*
X143660116Y-70254000D01*
X143644877Y-70258475D01*
X143643672Y-70259865D01*
X143642001Y-70267548D01*
X143642001Y-70894669D01*
X125670012Y-70894669D01*
X128338911Y-68225770D01*
X128353323Y-68213384D01*
X128364918Y-68204851D01*
X128364923Y-68204846D01*
X128370818Y-68200508D01*
X128375557Y-68194930D01*
X128375560Y-68194927D01*
X128405035Y-68160232D01*
X128411965Y-68152716D01*
X128417661Y-68147020D01*
X128419924Y-68144159D01*
X128419929Y-68144154D01*
X128435293Y-68124734D01*
X128438082Y-68121333D01*
X128439743Y-68119378D01*
X128485333Y-68065715D01*
X128488659Y-68059202D01*
X128492020Y-68054163D01*
X128495196Y-68049021D01*
X128499734Y-68043284D01*
X128530655Y-67977125D01*
X128532561Y-67973225D01*
X128540919Y-67956857D01*
X128565769Y-67908192D01*
X128567508Y-67901083D01*
X128569604Y-67895449D01*
X128571523Y-67889679D01*
X128574622Y-67883050D01*
X128589491Y-67811565D01*
X128590461Y-67807282D01*
X128604950Y-67748069D01*
X128607808Y-67736390D01*
X128608500Y-67725236D01*
X128608535Y-67725238D01*
X128608775Y-67721266D01*
X128609152Y-67717045D01*
X128610641Y-67709885D01*
X128608546Y-67632458D01*
X128608500Y-67629050D01*
X128608500Y-67426695D01*
X143637251Y-67426695D01*
X143637548Y-67431848D01*
X143637548Y-67431851D01*
X143643011Y-67526590D01*
X143650110Y-67649715D01*
X143651247Y-67654761D01*
X143651248Y-67654767D01*
X143667130Y-67725238D01*
X143699222Y-67867639D01*
X143783266Y-68074616D01*
X143899987Y-68265088D01*
X144046250Y-68433938D01*
X144050225Y-68437238D01*
X144050231Y-68437244D01*
X144055425Y-68441556D01*
X144095059Y-68500460D01*
X144096555Y-68571441D01*
X144059439Y-68631962D01*
X144019168Y-68656480D01*
X143911946Y-68696676D01*
X143896351Y-68705214D01*
X143794276Y-68781715D01*
X143781715Y-68794276D01*
X143705214Y-68896351D01*
X143696676Y-68911946D01*
X143651522Y-69032394D01*
X143647895Y-69047649D01*
X143642369Y-69098514D01*
X143642000Y-69105328D01*
X143642000Y-69727885D01*
X143646475Y-69743124D01*
X143647865Y-69744329D01*
X143655548Y-69746000D01*
X146339884Y-69746000D01*
X146355123Y-69741525D01*
X146356328Y-69740135D01*
X146357999Y-69732452D01*
X146357999Y-69105331D01*
X146357629Y-69098510D01*
X146352105Y-69047648D01*
X146348479Y-69032396D01*
X146303324Y-68911946D01*
X146294786Y-68896351D01*
X146218285Y-68794276D01*
X146205724Y-68781715D01*
X146103649Y-68705214D01*
X146088054Y-68696676D01*
X145977813Y-68655348D01*
X145921049Y-68612706D01*
X145896349Y-68546145D01*
X145911557Y-68476796D01*
X145933104Y-68448115D01*
X146034430Y-68347144D01*
X146034440Y-68347132D01*
X146038096Y-68343489D01*
X146097594Y-68260689D01*
X146165435Y-68166277D01*
X146168453Y-68162077D01*
X146173080Y-68152716D01*
X146265136Y-67966453D01*
X146265137Y-67966451D01*
X146267430Y-67961811D01*
X146332370Y-67748069D01*
X146361529Y-67526590D01*
X146363156Y-67460000D01*
X146344852Y-67237361D01*
X146290431Y-67020702D01*
X146201354Y-66815840D01*
X146080014Y-66628277D01*
X145929670Y-66463051D01*
X145925619Y-66459852D01*
X145925615Y-66459848D01*
X145758414Y-66327800D01*
X145758410Y-66327798D01*
X145754359Y-66324598D01*
X145713053Y-66301796D01*
X145663084Y-66251364D01*
X145648312Y-66181921D01*
X145673428Y-66115516D01*
X145700780Y-66088909D01*
X145744603Y-66057650D01*
X145879860Y-65961173D01*
X146038096Y-65803489D01*
X146097594Y-65720689D01*
X146165435Y-65626277D01*
X146168453Y-65622077D01*
X146192264Y-65573900D01*
X146265136Y-65426453D01*
X146265137Y-65426451D01*
X146267430Y-65421811D01*
X146332370Y-65208069D01*
X146361529Y-64986590D01*
X146363156Y-64920000D01*
X146344852Y-64697361D01*
X146290431Y-64480702D01*
X146201354Y-64275840D01*
X146080014Y-64088277D01*
X145929670Y-63923051D01*
X145925619Y-63919852D01*
X145925615Y-63919848D01*
X145758414Y-63787800D01*
X145758410Y-63787798D01*
X145754359Y-63784598D01*
X145713053Y-63761796D01*
X145663084Y-63711364D01*
X145648312Y-63641921D01*
X145673428Y-63575516D01*
X145700780Y-63548909D01*
X145768365Y-63500701D01*
X145879860Y-63421173D01*
X146038096Y-63263489D01*
X146097594Y-63180689D01*
X146165435Y-63086277D01*
X146168453Y-63082077D01*
X146267430Y-62881811D01*
X146332370Y-62668069D01*
X146361529Y-62446590D01*
X146363156Y-62380000D01*
X146344852Y-62157361D01*
X146290431Y-61940702D01*
X146201354Y-61735840D01*
X146087511Y-61559865D01*
X146082822Y-61552617D01*
X146082820Y-61552614D01*
X146080014Y-61548277D01*
X145929670Y-61383051D01*
X145925619Y-61379852D01*
X145925615Y-61379848D01*
X145758414Y-61247800D01*
X145758410Y-61247798D01*
X145754359Y-61244598D01*
X145713053Y-61221796D01*
X145663084Y-61171364D01*
X145648312Y-61101921D01*
X145673428Y-61035516D01*
X145700780Y-61008909D01*
X145744603Y-60977650D01*
X145879860Y-60881173D01*
X146038096Y-60723489D01*
X146097594Y-60640689D01*
X146165435Y-60546277D01*
X146168453Y-60542077D01*
X146199410Y-60479441D01*
X146265136Y-60346453D01*
X146265137Y-60346451D01*
X146267430Y-60341811D01*
X146332370Y-60128069D01*
X146361529Y-59906590D01*
X146363156Y-59840000D01*
X146344852Y-59617361D01*
X146290431Y-59400702D01*
X146201354Y-59195840D01*
X146161906Y-59134862D01*
X146082822Y-59012617D01*
X146082820Y-59012614D01*
X146080014Y-59008277D01*
X145929670Y-58843051D01*
X145925619Y-58839852D01*
X145925615Y-58839848D01*
X145758414Y-58707800D01*
X145758410Y-58707798D01*
X145754359Y-58704598D01*
X145558789Y-58596638D01*
X145553920Y-58594914D01*
X145553916Y-58594912D01*
X145353087Y-58523795D01*
X145353083Y-58523794D01*
X145348212Y-58522069D01*
X145343119Y-58521162D01*
X145343116Y-58521161D01*
X145133373Y-58483800D01*
X145133367Y-58483799D01*
X145128284Y-58482894D01*
X145054452Y-58481992D01*
X144910081Y-58480228D01*
X144910079Y-58480228D01*
X144904911Y-58480165D01*
X144684091Y-58513955D01*
X144471756Y-58583357D01*
X144273607Y-58686507D01*
X144269474Y-58689610D01*
X144269471Y-58689612D01*
X144245247Y-58707800D01*
X144094965Y-58820635D01*
X144091393Y-58824373D01*
X143994410Y-58925860D01*
X143940629Y-58982138D01*
X143937715Y-58986410D01*
X143937714Y-58986411D01*
X143866898Y-59090224D01*
X143814743Y-59166680D01*
X143720688Y-59369305D01*
X143660989Y-59584570D01*
X143637251Y-59806695D01*
X143637548Y-59811848D01*
X143637548Y-59811851D01*
X143643011Y-59906590D01*
X143650110Y-60029715D01*
X143651247Y-60034761D01*
X143651248Y-60034767D01*
X143671119Y-60122939D01*
X143699222Y-60247639D01*
X143783266Y-60454616D01*
X143815920Y-60507903D01*
X143871026Y-60597827D01*
X143899987Y-60645088D01*
X144046250Y-60813938D01*
X144218126Y-60956632D01*
X144288595Y-60997811D01*
X144291445Y-60999476D01*
X144340169Y-61051114D01*
X144353240Y-61120897D01*
X144326509Y-61186669D01*
X144286055Y-61220027D01*
X144273607Y-61226507D01*
X144269474Y-61229610D01*
X144269471Y-61229612D01*
X144245247Y-61247800D01*
X144094965Y-61360635D01*
X143940629Y-61522138D01*
X143937715Y-61526410D01*
X143937714Y-61526411D01*
X143914893Y-61559865D01*
X143814743Y-61706680D01*
X143720688Y-61909305D01*
X143660989Y-62124570D01*
X143637251Y-62346695D01*
X143637548Y-62351848D01*
X143637548Y-62351851D01*
X143643011Y-62446590D01*
X143650110Y-62569715D01*
X143651247Y-62574761D01*
X143651248Y-62574767D01*
X143671119Y-62662939D01*
X143699222Y-62787639D01*
X143783266Y-62994616D01*
X143899987Y-63185088D01*
X144046250Y-63353938D01*
X144218126Y-63496632D01*
X144288595Y-63537811D01*
X144291445Y-63539476D01*
X144340169Y-63591114D01*
X144353240Y-63660897D01*
X144326509Y-63726669D01*
X144286055Y-63760027D01*
X144273607Y-63766507D01*
X144269474Y-63769610D01*
X144269471Y-63769612D01*
X144245247Y-63787800D01*
X144094965Y-63900635D01*
X143940629Y-64062138D01*
X143814743Y-64246680D01*
X143720688Y-64449305D01*
X143660989Y-64664570D01*
X143637251Y-64886695D01*
X143637548Y-64891848D01*
X143637548Y-64891851D01*
X143643011Y-64986590D01*
X143650110Y-65109715D01*
X143651247Y-65114761D01*
X143651248Y-65114767D01*
X143669354Y-65195106D01*
X143699222Y-65327639D01*
X143783266Y-65534616D01*
X143899987Y-65725088D01*
X144046250Y-65893938D01*
X144218126Y-66036632D01*
X144288595Y-66077811D01*
X144291445Y-66079476D01*
X144340169Y-66131114D01*
X144353240Y-66200897D01*
X144326509Y-66266669D01*
X144286055Y-66300027D01*
X144273607Y-66306507D01*
X144269474Y-66309610D01*
X144269471Y-66309612D01*
X144245247Y-66327800D01*
X144094965Y-66440635D01*
X143940629Y-66602138D01*
X143814743Y-66786680D01*
X143720688Y-66989305D01*
X143660989Y-67204570D01*
X143637251Y-67426695D01*
X128608500Y-67426695D01*
X128608500Y-64032371D01*
X128628502Y-63964250D01*
X128645405Y-63943276D01*
X130370331Y-62218350D01*
X130433228Y-62184199D01*
X130489824Y-62172169D01*
X130489833Y-62172166D01*
X130496288Y-62170794D01*
X130514868Y-62162522D01*
X130580283Y-62133397D01*
X130618305Y-62116469D01*
X130688671Y-62107035D01*
X130741901Y-62130196D01*
X130742298Y-62129552D01*
X130748536Y-62133397D01*
X130880020Y-62214445D01*
X130887899Y-62219302D01*
X131050243Y-62273149D01*
X131057080Y-62273849D01*
X131057082Y-62273850D01*
X131098401Y-62278083D01*
X131151268Y-62283500D01*
X131698732Y-62283500D01*
X131701978Y-62283163D01*
X131701982Y-62283163D01*
X131736083Y-62279625D01*
X131801019Y-62272887D01*
X131954726Y-62221606D01*
X131956324Y-62221073D01*
X131956326Y-62221072D01*
X131963268Y-62218756D01*
X132108713Y-62128752D01*
X132113886Y-62123570D01*
X132119623Y-62119023D01*
X132121055Y-62120830D01*
X132173575Y-62092098D01*
X132244395Y-62097108D01*
X132280853Y-62120499D01*
X132281683Y-62119448D01*
X132298840Y-62132998D01*
X132431880Y-62215004D01*
X132445061Y-62221151D01*
X132593814Y-62270491D01*
X132607190Y-62273358D01*
X132698097Y-62282672D01*
X132703126Y-62282929D01*
X132718124Y-62278525D01*
X132719329Y-62277135D01*
X132721000Y-62269452D01*
X132721000Y-62264885D01*
X133229000Y-62264885D01*
X133233475Y-62280124D01*
X133234865Y-62281329D01*
X133242548Y-62283000D01*
X133245438Y-62283000D01*
X133251953Y-62282663D01*
X133344057Y-62273106D01*
X133357456Y-62270212D01*
X133506107Y-62220619D01*
X133519286Y-62214445D01*
X133652173Y-62132212D01*
X133663574Y-62123176D01*
X133773986Y-62012571D01*
X133782998Y-62001160D01*
X133865004Y-61868120D01*
X133871151Y-61854939D01*
X133920491Y-61706186D01*
X133923358Y-61692810D01*
X133932672Y-61601903D01*
X133933000Y-61595487D01*
X133933000Y-61572115D01*
X133928525Y-61556876D01*
X133927135Y-61555671D01*
X133919452Y-61554000D01*
X133247115Y-61554000D01*
X133231876Y-61558475D01*
X133230671Y-61559865D01*
X133229000Y-61567548D01*
X133229000Y-62264885D01*
X132721000Y-62264885D01*
X132721000Y-61027885D01*
X133229000Y-61027885D01*
X133233475Y-61043124D01*
X133234865Y-61044329D01*
X133242548Y-61046000D01*
X133914885Y-61046000D01*
X133930124Y-61041525D01*
X133931329Y-61040135D01*
X133933000Y-61032452D01*
X133933000Y-61004562D01*
X133932663Y-60998047D01*
X133923106Y-60905943D01*
X133920212Y-60892544D01*
X133870619Y-60743893D01*
X133864445Y-60730714D01*
X133782212Y-60597827D01*
X133773176Y-60586426D01*
X133662571Y-60476014D01*
X133651160Y-60467002D01*
X133518120Y-60384996D01*
X133504939Y-60378849D01*
X133356186Y-60329509D01*
X133342810Y-60326642D01*
X133251903Y-60317328D01*
X133246874Y-60317071D01*
X133231876Y-60321475D01*
X133230671Y-60322865D01*
X133229000Y-60330548D01*
X133229000Y-61027885D01*
X132721000Y-61027885D01*
X132721000Y-60335115D01*
X132716525Y-60319876D01*
X132715135Y-60318671D01*
X132707452Y-60317000D01*
X132704562Y-60317000D01*
X132698047Y-60317337D01*
X132605943Y-60326894D01*
X132592544Y-60329788D01*
X132443893Y-60379381D01*
X132430714Y-60385555D01*
X132297827Y-60467788D01*
X132280689Y-60481371D01*
X132279159Y-60479441D01*
X132227120Y-60507903D01*
X132156301Y-60502887D01*
X132119383Y-60479201D01*
X132118628Y-60480157D01*
X132112882Y-60475619D01*
X132107702Y-60470448D01*
X132101471Y-60466607D01*
X131968331Y-60384538D01*
X131968329Y-60384537D01*
X131962101Y-60380698D01*
X131799757Y-60326851D01*
X131792920Y-60326151D01*
X131792918Y-60326150D01*
X131751599Y-60321917D01*
X131698732Y-60316500D01*
X131151268Y-60316500D01*
X131148022Y-60316837D01*
X131148018Y-60316837D01*
X131130344Y-60318671D01*
X131111503Y-60320626D01*
X131041683Y-60307762D01*
X130989901Y-60259191D01*
X130972500Y-60195299D01*
X130972500Y-55894669D01*
X143642001Y-55894669D01*
X143642371Y-55901490D01*
X143647895Y-55952352D01*
X143651521Y-55967604D01*
X143696676Y-56088054D01*
X143705214Y-56103649D01*
X143781715Y-56205724D01*
X143794276Y-56218285D01*
X143896351Y-56294786D01*
X143911946Y-56303324D01*
X144032394Y-56348478D01*
X144047649Y-56352105D01*
X144098514Y-56357631D01*
X144105328Y-56358000D01*
X144727885Y-56358000D01*
X144743124Y-56353525D01*
X144744329Y-56352135D01*
X144746000Y-56344452D01*
X144746000Y-56339884D01*
X145254000Y-56339884D01*
X145258475Y-56355123D01*
X145259865Y-56356328D01*
X145267548Y-56357999D01*
X145894669Y-56357999D01*
X145901490Y-56357629D01*
X145952352Y-56352105D01*
X145967604Y-56348479D01*
X146088054Y-56303324D01*
X146103649Y-56294786D01*
X146205724Y-56218285D01*
X146218285Y-56205724D01*
X146294786Y-56103649D01*
X146303324Y-56088054D01*
X146348478Y-55967606D01*
X146352105Y-55952351D01*
X146357631Y-55901486D01*
X146358000Y-55894672D01*
X146358000Y-55272115D01*
X146353525Y-55256876D01*
X146352135Y-55255671D01*
X146344452Y-55254000D01*
X145272115Y-55254000D01*
X145256876Y-55258475D01*
X145255671Y-55259865D01*
X145254000Y-55267548D01*
X145254000Y-56339884D01*
X144746000Y-56339884D01*
X144746000Y-55272115D01*
X144741525Y-55256876D01*
X144740135Y-55255671D01*
X144732452Y-55254000D01*
X143660116Y-55254000D01*
X143644877Y-55258475D01*
X143643672Y-55259865D01*
X143642001Y-55267548D01*
X143642001Y-55894669D01*
X130972500Y-55894669D01*
X130972500Y-55250453D01*
X130992502Y-55182332D01*
X131009405Y-55161358D01*
X131552911Y-54617852D01*
X131567323Y-54605466D01*
X131578918Y-54596933D01*
X131578923Y-54596928D01*
X131584818Y-54592590D01*
X131601028Y-54573509D01*
X131660375Y-54534545D01*
X131736719Y-54535495D01*
X131850243Y-54573149D01*
X131857080Y-54573849D01*
X131857082Y-54573850D01*
X131898401Y-54578083D01*
X131951268Y-54583500D01*
X132498732Y-54583500D01*
X132501978Y-54583163D01*
X132501982Y-54583163D01*
X132536083Y-54579625D01*
X132601019Y-54572887D01*
X132674358Y-54548419D01*
X132756324Y-54521073D01*
X132756326Y-54521072D01*
X132763268Y-54518756D01*
X132789071Y-54502789D01*
X132902485Y-54432606D01*
X132908713Y-54428752D01*
X132913886Y-54423570D01*
X132919623Y-54419023D01*
X132921055Y-54420830D01*
X132973575Y-54392098D01*
X133044395Y-54397108D01*
X133080853Y-54420499D01*
X133081683Y-54419448D01*
X133098840Y-54432998D01*
X133231880Y-54515004D01*
X133245061Y-54521151D01*
X133393814Y-54570491D01*
X133407190Y-54573358D01*
X133498097Y-54582672D01*
X133503126Y-54582929D01*
X133518124Y-54578525D01*
X133519329Y-54577135D01*
X133521000Y-54569452D01*
X133521000Y-54564885D01*
X134029000Y-54564885D01*
X134033475Y-54580124D01*
X134034865Y-54581329D01*
X134042548Y-54583000D01*
X134045438Y-54583000D01*
X134051953Y-54582663D01*
X134144057Y-54573106D01*
X134157456Y-54570212D01*
X134306107Y-54520619D01*
X134319286Y-54514445D01*
X134452173Y-54432212D01*
X134463574Y-54423176D01*
X134573986Y-54312571D01*
X134582998Y-54301160D01*
X134665004Y-54168120D01*
X134671151Y-54154939D01*
X134720491Y-54006186D01*
X134723358Y-53992810D01*
X134732672Y-53901903D01*
X134733000Y-53895487D01*
X134733000Y-53872115D01*
X134728525Y-53856876D01*
X134727135Y-53855671D01*
X134719452Y-53854000D01*
X134047115Y-53854000D01*
X134031876Y-53858475D01*
X134030671Y-53859865D01*
X134029000Y-53867548D01*
X134029000Y-54564885D01*
X133521000Y-54564885D01*
X133521000Y-53327885D01*
X134029000Y-53327885D01*
X134033475Y-53343124D01*
X134034865Y-53344329D01*
X134042548Y-53346000D01*
X134714885Y-53346000D01*
X134730124Y-53341525D01*
X134731329Y-53340135D01*
X134733000Y-53332452D01*
X134733000Y-53304562D01*
X134732663Y-53298047D01*
X134723106Y-53205943D01*
X134720212Y-53192544D01*
X134670619Y-53043893D01*
X134664445Y-53030714D01*
X134582212Y-52897827D01*
X134573176Y-52886426D01*
X134462571Y-52776014D01*
X134451160Y-52767002D01*
X134318120Y-52684996D01*
X134304939Y-52678849D01*
X134156186Y-52629509D01*
X134142810Y-52626642D01*
X134051903Y-52617328D01*
X134046874Y-52617071D01*
X134031876Y-52621475D01*
X134030671Y-52622865D01*
X134029000Y-52630548D01*
X134029000Y-53327885D01*
X133521000Y-53327885D01*
X133521000Y-52635115D01*
X133516525Y-52619876D01*
X133515135Y-52618671D01*
X133507452Y-52617000D01*
X133504562Y-52617000D01*
X133498047Y-52617337D01*
X133405943Y-52626894D01*
X133392544Y-52629788D01*
X133243893Y-52679381D01*
X133230714Y-52685555D01*
X133097827Y-52767788D01*
X133080689Y-52781371D01*
X133079159Y-52779441D01*
X133027120Y-52807903D01*
X132956301Y-52802887D01*
X132919383Y-52779201D01*
X132918628Y-52780157D01*
X132912882Y-52775619D01*
X132907702Y-52770448D01*
X132901471Y-52766607D01*
X132768331Y-52684538D01*
X132768329Y-52684537D01*
X132762101Y-52680698D01*
X132599757Y-52626851D01*
X132592920Y-52626151D01*
X132592918Y-52626150D01*
X132551599Y-52621917D01*
X132498732Y-52616500D01*
X131951268Y-52616500D01*
X131948022Y-52616837D01*
X131948018Y-52616837D01*
X131918730Y-52619876D01*
X131848981Y-52627113D01*
X131840963Y-52629788D01*
X131693676Y-52678927D01*
X131693674Y-52678928D01*
X131686732Y-52681244D01*
X131680508Y-52685096D01*
X131680507Y-52685096D01*
X131559635Y-52759894D01*
X131491183Y-52778732D01*
X131442085Y-52767857D01*
X131346288Y-52725206D01*
X131244429Y-52703555D01*
X131165944Y-52686872D01*
X131165939Y-52686872D01*
X131159487Y-52685500D01*
X130968513Y-52685500D01*
X130962061Y-52686872D01*
X130962056Y-52686872D01*
X130883571Y-52703555D01*
X130781712Y-52725206D01*
X130775682Y-52727891D01*
X130775681Y-52727891D01*
X130613278Y-52800197D01*
X130613276Y-52800198D01*
X130607248Y-52802882D01*
X130452747Y-52915134D01*
X130448326Y-52920044D01*
X130448325Y-52920045D01*
X130429970Y-52940431D01*
X130324960Y-53057056D01*
X130314822Y-53074616D01*
X130235546Y-53211926D01*
X130229473Y-53222444D01*
X130170458Y-53404072D01*
X130169768Y-53410633D01*
X130169768Y-53410635D01*
X130166706Y-53439769D01*
X130150496Y-53594000D01*
X130151186Y-53600565D01*
X130170458Y-53783928D01*
X130168570Y-53784126D01*
X130163858Y-53845798D01*
X130135113Y-53890288D01*
X129725089Y-54300312D01*
X129710677Y-54312698D01*
X129699082Y-54321231D01*
X129699077Y-54321236D01*
X129693182Y-54325574D01*
X129688443Y-54331152D01*
X129688440Y-54331155D01*
X129658965Y-54365850D01*
X129652035Y-54373366D01*
X129646340Y-54379061D01*
X129644060Y-54381943D01*
X129628719Y-54401333D01*
X129625928Y-54404737D01*
X129583409Y-54454785D01*
X129578667Y-54460367D01*
X129575339Y-54466883D01*
X129571972Y-54471932D01*
X129568805Y-54477061D01*
X129564266Y-54482798D01*
X129533345Y-54548957D01*
X129531442Y-54552851D01*
X129498231Y-54617890D01*
X129496492Y-54624998D01*
X129494393Y-54630641D01*
X129492476Y-54636404D01*
X129489378Y-54643032D01*
X129487888Y-54650194D01*
X129487888Y-54650195D01*
X129474514Y-54714494D01*
X129473544Y-54718778D01*
X129456192Y-54789692D01*
X129455500Y-54800846D01*
X129455464Y-54800844D01*
X129455225Y-54804837D01*
X129454851Y-54809029D01*
X129453360Y-54816197D01*
X129453558Y-54823514D01*
X129455454Y-54893603D01*
X129455500Y-54897010D01*
X129455500Y-60765001D01*
X129438619Y-60828000D01*
X129379473Y-60930444D01*
X129346329Y-61032452D01*
X129324613Y-61099285D01*
X129293875Y-61149444D01*
X127361089Y-63082230D01*
X127346677Y-63094616D01*
X127335082Y-63103149D01*
X127335077Y-63103154D01*
X127329182Y-63107492D01*
X127324443Y-63113070D01*
X127324440Y-63113073D01*
X127294965Y-63147768D01*
X127288035Y-63155284D01*
X127282340Y-63160979D01*
X127280060Y-63163861D01*
X127264719Y-63183251D01*
X127261928Y-63186655D01*
X127219409Y-63236703D01*
X127214667Y-63242285D01*
X127211339Y-63248801D01*
X127207972Y-63253850D01*
X127204805Y-63258979D01*
X127200266Y-63264716D01*
X127169345Y-63330875D01*
X127167442Y-63334769D01*
X127134231Y-63399808D01*
X127132492Y-63406916D01*
X127130393Y-63412559D01*
X127128476Y-63418322D01*
X127125378Y-63424950D01*
X127123888Y-63432112D01*
X127123888Y-63432113D01*
X127110514Y-63496412D01*
X127109544Y-63500696D01*
X127092192Y-63571610D01*
X127091500Y-63582764D01*
X127091464Y-63582762D01*
X127091225Y-63586755D01*
X127090851Y-63590947D01*
X127089360Y-63598115D01*
X127089558Y-63605432D01*
X127091454Y-63675521D01*
X127091500Y-63678928D01*
X127091500Y-67275629D01*
X127071498Y-67343750D01*
X127054595Y-67364724D01*
X123541669Y-70877650D01*
X123478772Y-70911801D01*
X123422176Y-70923831D01*
X123422167Y-70923834D01*
X123415712Y-70925206D01*
X123409682Y-70927891D01*
X123409681Y-70927891D01*
X123247278Y-71000197D01*
X123247276Y-71000198D01*
X123241248Y-71002882D01*
X123235909Y-71006761D01*
X123235902Y-71006765D01*
X123229472Y-71011437D01*
X123155413Y-71035500D01*
X121758289Y-71035500D01*
X121690168Y-71015498D01*
X121669194Y-70998595D01*
X120285688Y-69615089D01*
X120273302Y-69600677D01*
X120264769Y-69589082D01*
X120264764Y-69589077D01*
X120260426Y-69583182D01*
X120254848Y-69578443D01*
X120254845Y-69578440D01*
X120220150Y-69548965D01*
X120212634Y-69542035D01*
X120206939Y-69536340D01*
X120200798Y-69531482D01*
X120184667Y-69518719D01*
X120181263Y-69515928D01*
X120131215Y-69473409D01*
X120131213Y-69473408D01*
X120125633Y-69468667D01*
X120119117Y-69465339D01*
X120114068Y-69461972D01*
X120108939Y-69458805D01*
X120103202Y-69454266D01*
X120037043Y-69423345D01*
X120033143Y-69421439D01*
X119968110Y-69388231D01*
X119961002Y-69386492D01*
X119955359Y-69384393D01*
X119949596Y-69382476D01*
X119942968Y-69379378D01*
X119926733Y-69376001D01*
X119871506Y-69364514D01*
X119867217Y-69363543D01*
X119796308Y-69346192D01*
X119790706Y-69345844D01*
X119790703Y-69345844D01*
X119785154Y-69345500D01*
X119785156Y-69345464D01*
X119781163Y-69345225D01*
X119776971Y-69344851D01*
X119769803Y-69343360D01*
X119703593Y-69345151D01*
X119692397Y-69345454D01*
X119688990Y-69345500D01*
X112898500Y-69345500D01*
X112830379Y-69325498D01*
X112783886Y-69271842D01*
X112772500Y-69219500D01*
X112772500Y-65666988D01*
X112773933Y-65648038D01*
X112776099Y-65633803D01*
X112776099Y-65633799D01*
X112777199Y-65626569D01*
X112776457Y-65617438D01*
X112772915Y-65573900D01*
X112772500Y-65563685D01*
X112772500Y-65555625D01*
X112769209Y-65527398D01*
X112768778Y-65523039D01*
X112763453Y-65457578D01*
X112762860Y-65450282D01*
X112760605Y-65443321D01*
X112759418Y-65437381D01*
X112758029Y-65431506D01*
X112757182Y-65424237D01*
X112732264Y-65355588D01*
X112730847Y-65351460D01*
X112710607Y-65288982D01*
X112710606Y-65288980D01*
X112708351Y-65282019D01*
X112704555Y-65275764D01*
X112702049Y-65270290D01*
X112699330Y-65264860D01*
X112696833Y-65257981D01*
X112656814Y-65196942D01*
X112654467Y-65193223D01*
X112616595Y-65130811D01*
X112609197Y-65122434D01*
X112609224Y-65122410D01*
X112606571Y-65119418D01*
X112603868Y-65116185D01*
X112599856Y-65110066D01*
X112543617Y-65056790D01*
X112541175Y-65054412D01*
X103345078Y-55858315D01*
X103311052Y-55796003D01*
X103316117Y-55725188D01*
X103358664Y-55668352D01*
X103425184Y-55643541D01*
X103434173Y-55643220D01*
X104070918Y-55643220D01*
X104139039Y-55663222D01*
X104180037Y-55706220D01*
X104260960Y-55846382D01*
X104265378Y-55851289D01*
X104265379Y-55851290D01*
X104370109Y-55967604D01*
X104388747Y-55988304D01*
X104448585Y-56031779D01*
X104526041Y-56088054D01*
X104543248Y-56100556D01*
X104549276Y-56103240D01*
X104549278Y-56103241D01*
X104633110Y-56140565D01*
X104717712Y-56178232D01*
X104811112Y-56198085D01*
X104898056Y-56216566D01*
X104898061Y-56216566D01*
X104904513Y-56217938D01*
X105095487Y-56217938D01*
X105101939Y-56216566D01*
X105101944Y-56216566D01*
X105188888Y-56198085D01*
X105282288Y-56178232D01*
X105366890Y-56140565D01*
X105450722Y-56103241D01*
X105450724Y-56103240D01*
X105456752Y-56100556D01*
X105473960Y-56088054D01*
X105551415Y-56031779D01*
X105611253Y-55988304D01*
X105629891Y-55967604D01*
X105734621Y-55851290D01*
X105734622Y-55851289D01*
X105739040Y-55846382D01*
X105834527Y-55680994D01*
X105893542Y-55499366D01*
X105913504Y-55309438D01*
X105900145Y-55182332D01*
X105894232Y-55126073D01*
X105894232Y-55126071D01*
X105893542Y-55119510D01*
X105834527Y-54937882D01*
X105796885Y-54872685D01*
X105780148Y-54803693D01*
X105796886Y-54746687D01*
X105831223Y-54687214D01*
X105831224Y-54687213D01*
X105834527Y-54681491D01*
X105893542Y-54499863D01*
X105901884Y-54420499D01*
X105912814Y-54316500D01*
X105913504Y-54309935D01*
X105897966Y-54162101D01*
X105894232Y-54126570D01*
X105894232Y-54126568D01*
X105893542Y-54120007D01*
X105834527Y-53938379D01*
X105739040Y-53772991D01*
X105678014Y-53705214D01*
X105615675Y-53635980D01*
X105615674Y-53635979D01*
X105611253Y-53631069D01*
X105456752Y-53518817D01*
X105450724Y-53516133D01*
X105450722Y-53516132D01*
X105288319Y-53443826D01*
X105288318Y-53443826D01*
X105282288Y-53441141D01*
X105188888Y-53421288D01*
X105101944Y-53402807D01*
X105101939Y-53402807D01*
X105095487Y-53401435D01*
X104904513Y-53401435D01*
X104898061Y-53402807D01*
X104898056Y-53402807D01*
X104811112Y-53421288D01*
X104717712Y-53441141D01*
X104711682Y-53443826D01*
X104711681Y-53443826D01*
X104549278Y-53516132D01*
X104549276Y-53516133D01*
X104543248Y-53518817D01*
X104388747Y-53631069D01*
X104384326Y-53635979D01*
X104384325Y-53635980D01*
X104321987Y-53705214D01*
X104260960Y-53772991D01*
X104180734Y-53911946D01*
X104180000Y-53913218D01*
X104128618Y-53962211D01*
X104070881Y-53976218D01*
X100741019Y-53976219D01*
X100570115Y-53976219D01*
X100568188Y-53976473D01*
X100564302Y-53976600D01*
X100471362Y-53976600D01*
X100408363Y-53959720D01*
X100406428Y-53958603D01*
X100399877Y-53953576D01*
X100341781Y-53929512D01*
X100286501Y-53884963D01*
X100264000Y-53813103D01*
X100264000Y-53586966D01*
X100257245Y-53524784D01*
X100259384Y-53524552D01*
X100259334Y-53495588D01*
X100256752Y-53495307D01*
X100263131Y-53436586D01*
X100263500Y-53429772D01*
X100263500Y-53403215D01*
X100259025Y-53387976D01*
X100257635Y-53386771D01*
X100240509Y-53383046D01*
X100178197Y-53349022D01*
X100166465Y-53335490D01*
X100124143Y-53279020D01*
X100124142Y-53279019D01*
X100118761Y-53271839D01*
X100038819Y-53211925D01*
X99996304Y-53155067D01*
X99991278Y-53084249D01*
X100025338Y-53021955D01*
X100087669Y-52987965D01*
X100114384Y-52985100D01*
X100245384Y-52985100D01*
X100260623Y-52980625D01*
X100261828Y-52979235D01*
X100263499Y-52971552D01*
X100263499Y-52940431D01*
X100263129Y-52933610D01*
X100257605Y-52882748D01*
X100253979Y-52867496D01*
X100208824Y-52747046D01*
X100200286Y-52731452D01*
X100179379Y-52703555D01*
X100154532Y-52637048D01*
X100166011Y-52574741D01*
X100241244Y-52413404D01*
X100244990Y-52403112D01*
X100297982Y-52205341D01*
X100299885Y-52194546D01*
X100317731Y-51990575D01*
X100317731Y-51979625D01*
X100299885Y-51775654D01*
X100297982Y-51764859D01*
X100244990Y-51567088D01*
X100241244Y-51556796D01*
X100154714Y-51371232D01*
X100149231Y-51361737D01*
X100124140Y-51325903D01*
X100113661Y-51317527D01*
X100100215Y-51324595D01*
X99169595Y-52255215D01*
X99107283Y-52289241D01*
X99036468Y-52284176D01*
X98991405Y-52255215D01*
X98810385Y-52074195D01*
X98776359Y-52011883D01*
X98781424Y-51941068D01*
X98810385Y-51896005D01*
X99741726Y-50964664D01*
X99748156Y-50952889D01*
X99738860Y-50940874D01*
X99703863Y-50916369D01*
X99694368Y-50910886D01*
X99508804Y-50824356D01*
X99498512Y-50820610D01*
X99300741Y-50767618D01*
X99289946Y-50765715D01*
X99085975Y-50747869D01*
X99075025Y-50747869D01*
X98871054Y-50765715D01*
X98860259Y-50767618D01*
X98822611Y-50777706D01*
X98751635Y-50776016D01*
X98692839Y-50736222D01*
X98664891Y-50670958D01*
X98664000Y-50655999D01*
X98664000Y-47831121D01*
X98684002Y-47763000D01*
X98737658Y-47716507D01*
X98812096Y-47707074D01*
X98946948Y-47731095D01*
X98946954Y-47731096D01*
X98952037Y-47732001D01*
X99033804Y-47733000D01*
X99187093Y-47734873D01*
X99187095Y-47734873D01*
X99192263Y-47734936D01*
X99429744Y-47698596D01*
X99560013Y-47656018D01*
X99653183Y-47625566D01*
X99653189Y-47625563D01*
X99658101Y-47623958D01*
X99662687Y-47621571D01*
X99662691Y-47621569D01*
X99866607Y-47515416D01*
X99871200Y-47513025D01*
X99994137Y-47420721D01*
X100059185Y-47371882D01*
X100059188Y-47371880D01*
X100063320Y-47368777D01*
X100229301Y-47195088D01*
X100254535Y-47158097D01*
X100309444Y-47113096D01*
X100379968Y-47104925D01*
X100443716Y-47136179D01*
X100464411Y-47160660D01*
X100468498Y-47166977D01*
X100630186Y-47344670D01*
X100799833Y-47478649D01*
X100818724Y-47493568D01*
X100817419Y-47495220D01*
X100857328Y-47542734D01*
X100867742Y-47597161D01*
X100866801Y-47603349D01*
X100867394Y-47610641D01*
X100867394Y-47610644D01*
X100871085Y-47656018D01*
X100871500Y-47666233D01*
X100871500Y-47674293D01*
X100871925Y-47677937D01*
X100874789Y-47702507D01*
X100875222Y-47706882D01*
X100879787Y-47763000D01*
X100881140Y-47779637D01*
X100883396Y-47786601D01*
X100884587Y-47792560D01*
X100885971Y-47798415D01*
X100886818Y-47805681D01*
X100911735Y-47874327D01*
X100913152Y-47878455D01*
X100935649Y-47947899D01*
X100939445Y-47954154D01*
X100941951Y-47959628D01*
X100944670Y-47965058D01*
X100947167Y-47971937D01*
X100951180Y-47978057D01*
X100951180Y-47978058D01*
X100987186Y-48032976D01*
X100989523Y-48036680D01*
X101027405Y-48099107D01*
X101031121Y-48103315D01*
X101031122Y-48103316D01*
X101034803Y-48107484D01*
X101034776Y-48107508D01*
X101037429Y-48110500D01*
X101040132Y-48113733D01*
X101044144Y-48119852D01*
X101049456Y-48124884D01*
X101100383Y-48173128D01*
X101102825Y-48175506D01*
X103386230Y-50458911D01*
X103398616Y-50473323D01*
X103407149Y-50484918D01*
X103407154Y-50484923D01*
X103411492Y-50490818D01*
X103417070Y-50495557D01*
X103417073Y-50495560D01*
X103451768Y-50525035D01*
X103459284Y-50531965D01*
X103464980Y-50537661D01*
X103467841Y-50539924D01*
X103467846Y-50539929D01*
X103487266Y-50555293D01*
X103490667Y-50558082D01*
X103546285Y-50605333D01*
X103552798Y-50608659D01*
X103557837Y-50612020D01*
X103562979Y-50615196D01*
X103568716Y-50619734D01*
X103634875Y-50650655D01*
X103638769Y-50652558D01*
X103703808Y-50685769D01*
X103710917Y-50687508D01*
X103716551Y-50689604D01*
X103722321Y-50691523D01*
X103728950Y-50694622D01*
X103736113Y-50696112D01*
X103736116Y-50696113D01*
X103786830Y-50706661D01*
X103800435Y-50709491D01*
X103804701Y-50710457D01*
X103875610Y-50727808D01*
X103881212Y-50728156D01*
X103881215Y-50728156D01*
X103886764Y-50728500D01*
X103886762Y-50728535D01*
X103890734Y-50728775D01*
X103894955Y-50729152D01*
X103902115Y-50730641D01*
X103979542Y-50728546D01*
X103982950Y-50728500D01*
X104402930Y-50728500D01*
X104421880Y-50729933D01*
X104436115Y-50732099D01*
X104436119Y-50732099D01*
X104443349Y-50733199D01*
X104450641Y-50732606D01*
X104450644Y-50732606D01*
X104496018Y-50728915D01*
X104506233Y-50728500D01*
X108205500Y-50728500D01*
X108273621Y-50748502D01*
X108320114Y-50802158D01*
X108331500Y-50854500D01*
X108331500Y-54666930D01*
X108330067Y-54685880D01*
X108326801Y-54707349D01*
X108327394Y-54714641D01*
X108327394Y-54714644D01*
X108331085Y-54760018D01*
X108331500Y-54770233D01*
X108331500Y-54778293D01*
X108331925Y-54781937D01*
X108334789Y-54806507D01*
X108335222Y-54810882D01*
X108336250Y-54823514D01*
X108341140Y-54883637D01*
X108343396Y-54890601D01*
X108344587Y-54896560D01*
X108345971Y-54902415D01*
X108346818Y-54909681D01*
X108371735Y-54978327D01*
X108373152Y-54982455D01*
X108395649Y-55051899D01*
X108399445Y-55058154D01*
X108401951Y-55063628D01*
X108404670Y-55069058D01*
X108407167Y-55075937D01*
X108411180Y-55082057D01*
X108411180Y-55082058D01*
X108447186Y-55136976D01*
X108449523Y-55140680D01*
X108487405Y-55203107D01*
X108491121Y-55207315D01*
X108491122Y-55207316D01*
X108494803Y-55211484D01*
X108494776Y-55211508D01*
X108497429Y-55214500D01*
X108500132Y-55217733D01*
X108504144Y-55223852D01*
X108547798Y-55265206D01*
X108560383Y-55277128D01*
X108562825Y-55279506D01*
X109569875Y-56286556D01*
X109600613Y-56336714D01*
X109655473Y-56505556D01*
X109750960Y-56670944D01*
X109755378Y-56675851D01*
X109755379Y-56675852D01*
X109835519Y-56764856D01*
X109878747Y-56812866D01*
X110033248Y-56925118D01*
X110039276Y-56927802D01*
X110039278Y-56927803D01*
X110201681Y-57000109D01*
X110207712Y-57002794D01*
X110301112Y-57022647D01*
X110388056Y-57041128D01*
X110388061Y-57041128D01*
X110394513Y-57042500D01*
X110585487Y-57042500D01*
X110591939Y-57041128D01*
X110591944Y-57041128D01*
X110678888Y-57022647D01*
X110772288Y-57002794D01*
X110778319Y-57000109D01*
X110940722Y-56927803D01*
X110940724Y-56927802D01*
X110946752Y-56925118D01*
X111101253Y-56812866D01*
X111144481Y-56764856D01*
X111224621Y-56675852D01*
X111224622Y-56675851D01*
X111229040Y-56670944D01*
X111324527Y-56505556D01*
X111383542Y-56323928D01*
X111403504Y-56134000D01*
X111386116Y-55968562D01*
X111384232Y-55950635D01*
X111384232Y-55950633D01*
X111383542Y-55944072D01*
X111324527Y-55762444D01*
X111229040Y-55597056D01*
X111197649Y-55562192D01*
X111105675Y-55460045D01*
X111105674Y-55460044D01*
X111101253Y-55455134D01*
X110946752Y-55342882D01*
X110940724Y-55340198D01*
X110940722Y-55340197D01*
X110778319Y-55267891D01*
X110778318Y-55267891D01*
X110772288Y-55265206D01*
X110765833Y-55263834D01*
X110765824Y-55263831D01*
X110709228Y-55251801D01*
X110646331Y-55217650D01*
X109885405Y-54456724D01*
X109851379Y-54394412D01*
X109848500Y-54367629D01*
X109848500Y-52426695D01*
X143637251Y-52426695D01*
X143637548Y-52431848D01*
X143637548Y-52431851D01*
X143648933Y-52629295D01*
X143650110Y-52649715D01*
X143651247Y-52654761D01*
X143651248Y-52654767D01*
X143667123Y-52725206D01*
X143699222Y-52867639D01*
X143783266Y-53074616D01*
X143899987Y-53265088D01*
X144046250Y-53433938D01*
X144050225Y-53437238D01*
X144050231Y-53437244D01*
X144055425Y-53441556D01*
X144095059Y-53500460D01*
X144096555Y-53571441D01*
X144059439Y-53631962D01*
X144019168Y-53656480D01*
X143911946Y-53696676D01*
X143896351Y-53705214D01*
X143794276Y-53781715D01*
X143781715Y-53794276D01*
X143705214Y-53896351D01*
X143696676Y-53911946D01*
X143651522Y-54032394D01*
X143647895Y-54047649D01*
X143642369Y-54098514D01*
X143642000Y-54105328D01*
X143642000Y-54727885D01*
X143646475Y-54743124D01*
X143647865Y-54744329D01*
X143655548Y-54746000D01*
X146339884Y-54746000D01*
X146355123Y-54741525D01*
X146356328Y-54740135D01*
X146357999Y-54732452D01*
X146357999Y-54105331D01*
X146357629Y-54098510D01*
X146352105Y-54047648D01*
X146348479Y-54032396D01*
X146303324Y-53911946D01*
X146294786Y-53896351D01*
X146218285Y-53794276D01*
X146205724Y-53781715D01*
X146103649Y-53705214D01*
X146088054Y-53696676D01*
X145977813Y-53655348D01*
X145921049Y-53612706D01*
X145896349Y-53546145D01*
X145911557Y-53476796D01*
X145933104Y-53448115D01*
X146034430Y-53347144D01*
X146034440Y-53347132D01*
X146038096Y-53343489D01*
X146084422Y-53279020D01*
X146165435Y-53166277D01*
X146168453Y-53162077D01*
X146217532Y-53062774D01*
X146265136Y-52966453D01*
X146265137Y-52966451D01*
X146267430Y-52961811D01*
X146315715Y-52802887D01*
X146330865Y-52753023D01*
X146330865Y-52753021D01*
X146332370Y-52748069D01*
X146361529Y-52526590D01*
X146363156Y-52460000D01*
X146344852Y-52237361D01*
X146290431Y-52020702D01*
X146201354Y-51815840D01*
X146080014Y-51628277D01*
X145929670Y-51463051D01*
X145925619Y-51459852D01*
X145925615Y-51459848D01*
X145758414Y-51327800D01*
X145758410Y-51327798D01*
X145754359Y-51324598D01*
X145713053Y-51301796D01*
X145663084Y-51251364D01*
X145648312Y-51181921D01*
X145673428Y-51115516D01*
X145700780Y-51088909D01*
X145744603Y-51057650D01*
X145879860Y-50961173D01*
X146038096Y-50803489D01*
X146068543Y-50761118D01*
X146165435Y-50626277D01*
X146168453Y-50622077D01*
X146173424Y-50612020D01*
X146265136Y-50426453D01*
X146265137Y-50426451D01*
X146267430Y-50421811D01*
X146332370Y-50208069D01*
X146361529Y-49986590D01*
X146361811Y-49975036D01*
X146363074Y-49923365D01*
X146363074Y-49923361D01*
X146363156Y-49920000D01*
X146344852Y-49697361D01*
X146290431Y-49480702D01*
X146201354Y-49275840D01*
X146128299Y-49162914D01*
X146082822Y-49092617D01*
X146082820Y-49092614D01*
X146080014Y-49088277D01*
X145929670Y-48923051D01*
X145925619Y-48919852D01*
X145925615Y-48919848D01*
X145758414Y-48787800D01*
X145758410Y-48787798D01*
X145754359Y-48784598D01*
X145713053Y-48761796D01*
X145663084Y-48711364D01*
X145648312Y-48641921D01*
X145673428Y-48575516D01*
X145700780Y-48548909D01*
X145744603Y-48517650D01*
X145879860Y-48421173D01*
X146038096Y-48263489D01*
X146097594Y-48180689D01*
X146165435Y-48086277D01*
X146168453Y-48082077D01*
X146234768Y-47947899D01*
X146265136Y-47886453D01*
X146265137Y-47886451D01*
X146267430Y-47881811D01*
X146312643Y-47732999D01*
X146330865Y-47673023D01*
X146330865Y-47673021D01*
X146332370Y-47668069D01*
X146361529Y-47446590D01*
X146361734Y-47438190D01*
X146363074Y-47383365D01*
X146363074Y-47383361D01*
X146363156Y-47380000D01*
X146344852Y-47157361D01*
X146290431Y-46940702D01*
X146201354Y-46735840D01*
X146080014Y-46548277D01*
X145929670Y-46383051D01*
X145925619Y-46379852D01*
X145925615Y-46379848D01*
X145758414Y-46247800D01*
X145758410Y-46247798D01*
X145754359Y-46244598D01*
X145713053Y-46221796D01*
X145663084Y-46171364D01*
X145648312Y-46101921D01*
X145673428Y-46035516D01*
X145700780Y-46008909D01*
X145762149Y-45965135D01*
X145879860Y-45881173D01*
X146038096Y-45723489D01*
X146051342Y-45705056D01*
X146165435Y-45546277D01*
X146168453Y-45542077D01*
X146214401Y-45449109D01*
X146265136Y-45346453D01*
X146265137Y-45346451D01*
X146267430Y-45341811D01*
X146332370Y-45128069D01*
X146361529Y-44906590D01*
X146363156Y-44840000D01*
X146344852Y-44617361D01*
X146290431Y-44400702D01*
X146201354Y-44195840D01*
X146080014Y-44008277D01*
X145929670Y-43843051D01*
X145925619Y-43839852D01*
X145925615Y-43839848D01*
X145758414Y-43707800D01*
X145758410Y-43707798D01*
X145754359Y-43704598D01*
X145558789Y-43596638D01*
X145553920Y-43594914D01*
X145553916Y-43594912D01*
X145353087Y-43523795D01*
X145353083Y-43523794D01*
X145348212Y-43522069D01*
X145343119Y-43521162D01*
X145343116Y-43521161D01*
X145133373Y-43483800D01*
X145133367Y-43483799D01*
X145128284Y-43482894D01*
X145054452Y-43481992D01*
X144910081Y-43480228D01*
X144910079Y-43480228D01*
X144904911Y-43480165D01*
X144684091Y-43513955D01*
X144471756Y-43583357D01*
X144273607Y-43686507D01*
X144269474Y-43689610D01*
X144269471Y-43689612D01*
X144245247Y-43707800D01*
X144094965Y-43820635D01*
X143940629Y-43982138D01*
X143814743Y-44166680D01*
X143720688Y-44369305D01*
X143660989Y-44584570D01*
X143637251Y-44806695D01*
X143637548Y-44811848D01*
X143637548Y-44811851D01*
X143643011Y-44906590D01*
X143650110Y-45029715D01*
X143651247Y-45034761D01*
X143651248Y-45034767D01*
X143655395Y-45053168D01*
X143699222Y-45247639D01*
X143783266Y-45454616D01*
X143899987Y-45645088D01*
X144046250Y-45813938D01*
X144218126Y-45956632D01*
X144242714Y-45971000D01*
X144291445Y-45999476D01*
X144340169Y-46051114D01*
X144353240Y-46120897D01*
X144326509Y-46186669D01*
X144286055Y-46220027D01*
X144273607Y-46226507D01*
X144269474Y-46229610D01*
X144269471Y-46229612D01*
X144099100Y-46357530D01*
X144094965Y-46360635D01*
X144091393Y-46364373D01*
X143964542Y-46497115D01*
X143940629Y-46522138D01*
X143937715Y-46526410D01*
X143937714Y-46526411D01*
X143852556Y-46651249D01*
X143814743Y-46706680D01*
X143799003Y-46740590D01*
X143725572Y-46898784D01*
X143720688Y-46909305D01*
X143660989Y-47124570D01*
X143637251Y-47346695D01*
X143637548Y-47351848D01*
X143637548Y-47351851D01*
X143643011Y-47446590D01*
X143650110Y-47569715D01*
X143651247Y-47574761D01*
X143651248Y-47574767D01*
X143673392Y-47673023D01*
X143699222Y-47787639D01*
X143736465Y-47879358D01*
X143776543Y-47978058D01*
X143783266Y-47994616D01*
X143785965Y-47999020D01*
X143854280Y-48110500D01*
X143899987Y-48185088D01*
X144046250Y-48353938D01*
X144218126Y-48496632D01*
X144288595Y-48537811D01*
X144291445Y-48539476D01*
X144340169Y-48591114D01*
X144353240Y-48660897D01*
X144326509Y-48726669D01*
X144286055Y-48760027D01*
X144273607Y-48766507D01*
X144269474Y-48769610D01*
X144269471Y-48769612D01*
X144099100Y-48897530D01*
X144094965Y-48900635D01*
X143940629Y-49062138D01*
X143937715Y-49066410D01*
X143937714Y-49066411D01*
X143913979Y-49101206D01*
X143814743Y-49246680D01*
X143799003Y-49280590D01*
X143728231Y-49433056D01*
X143720688Y-49449305D01*
X143660989Y-49664570D01*
X143637251Y-49886695D01*
X143637548Y-49891848D01*
X143637548Y-49891851D01*
X143643011Y-49986590D01*
X143650110Y-50109715D01*
X143651247Y-50114761D01*
X143651248Y-50114767D01*
X143659947Y-50153365D01*
X143699222Y-50327639D01*
X143737461Y-50421811D01*
X143779376Y-50525035D01*
X143783266Y-50534616D01*
X143785965Y-50539020D01*
X143891024Y-50710461D01*
X143899987Y-50725088D01*
X144046250Y-50893938D01*
X144218126Y-51036632D01*
X144288595Y-51077811D01*
X144291445Y-51079476D01*
X144340169Y-51131114D01*
X144353240Y-51200897D01*
X144326509Y-51266669D01*
X144286055Y-51300027D01*
X144273607Y-51306507D01*
X144269474Y-51309610D01*
X144269471Y-51309612D01*
X144245247Y-51327800D01*
X144094965Y-51440635D01*
X144091393Y-51444373D01*
X143974124Y-51567088D01*
X143940629Y-51602138D01*
X143814743Y-51786680D01*
X143720688Y-51989305D01*
X143660989Y-52204570D01*
X143637251Y-52426695D01*
X109848500Y-52426695D01*
X109848500Y-50854500D01*
X109868502Y-50786379D01*
X109922158Y-50739886D01*
X109974500Y-50728500D01*
X118557413Y-50728500D01*
X118631472Y-50752563D01*
X118637902Y-50757235D01*
X118637909Y-50757239D01*
X118643248Y-50761118D01*
X118649276Y-50763802D01*
X118649278Y-50763803D01*
X118811681Y-50836109D01*
X118817712Y-50838794D01*
X118891603Y-50854500D01*
X118998056Y-50877128D01*
X118998061Y-50877128D01*
X119004513Y-50878500D01*
X119195487Y-50878500D01*
X119201939Y-50877128D01*
X119201944Y-50877128D01*
X119308397Y-50854500D01*
X119382288Y-50838794D01*
X119388319Y-50836109D01*
X119550722Y-50763803D01*
X119550724Y-50763802D01*
X119556752Y-50761118D01*
X119562097Y-50757235D01*
X119627200Y-50709934D01*
X119711253Y-50648866D01*
X119794282Y-50556653D01*
X119834621Y-50511852D01*
X119834622Y-50511851D01*
X119839040Y-50506944D01*
X119934527Y-50341556D01*
X119993542Y-50159928D01*
X120013504Y-49970000D01*
X120003740Y-49877100D01*
X119994232Y-49786635D01*
X119994232Y-49786633D01*
X119993542Y-49780072D01*
X119934527Y-49598444D01*
X119839040Y-49433056D01*
X119711253Y-49291134D01*
X119601647Y-49211500D01*
X119562094Y-49182763D01*
X119562093Y-49182762D01*
X119556752Y-49178882D01*
X119550724Y-49176198D01*
X119550722Y-49176197D01*
X119388319Y-49103891D01*
X119388318Y-49103891D01*
X119382288Y-49101206D01*
X119288887Y-49081353D01*
X119201944Y-49062872D01*
X119201939Y-49062872D01*
X119195487Y-49061500D01*
X119004513Y-49061500D01*
X118998061Y-49062872D01*
X118998056Y-49062872D01*
X118911113Y-49081353D01*
X118817712Y-49101206D01*
X118811682Y-49103891D01*
X118811681Y-49103891D01*
X118649278Y-49176197D01*
X118649276Y-49176198D01*
X118643248Y-49178882D01*
X118637909Y-49182761D01*
X118637902Y-49182765D01*
X118631472Y-49187437D01*
X118557413Y-49211500D01*
X109632587Y-49211500D01*
X109558528Y-49187437D01*
X109552098Y-49182765D01*
X109552091Y-49182761D01*
X109546752Y-49178882D01*
X109540724Y-49176198D01*
X109540722Y-49176197D01*
X109378319Y-49103891D01*
X109378318Y-49103891D01*
X109372288Y-49101206D01*
X109278887Y-49081353D01*
X109191944Y-49062872D01*
X109191939Y-49062872D01*
X109185487Y-49061500D01*
X108994513Y-49061500D01*
X108988061Y-49062872D01*
X108988056Y-49062872D01*
X108901113Y-49081353D01*
X108807712Y-49101206D01*
X108801682Y-49103891D01*
X108801681Y-49103891D01*
X108639278Y-49176197D01*
X108639276Y-49176198D01*
X108633248Y-49178882D01*
X108627909Y-49182761D01*
X108627902Y-49182765D01*
X108621472Y-49187437D01*
X108547413Y-49211500D01*
X105337583Y-49211500D01*
X105269462Y-49191498D01*
X105239197Y-49162914D01*
X105239040Y-49163056D01*
X105237292Y-49161114D01*
X105237288Y-49161110D01*
X105111253Y-49021134D01*
X104976254Y-48923051D01*
X104962094Y-48912763D01*
X104962093Y-48912762D01*
X104956752Y-48908882D01*
X104950724Y-48906198D01*
X104950722Y-48906197D01*
X104788319Y-48833891D01*
X104788318Y-48833891D01*
X104782288Y-48831206D01*
X104688887Y-48811353D01*
X104601944Y-48792872D01*
X104601939Y-48792872D01*
X104595487Y-48791500D01*
X104404513Y-48791500D01*
X104398061Y-48792872D01*
X104398056Y-48792872D01*
X104311113Y-48811353D01*
X104217712Y-48831206D01*
X104211685Y-48833889D01*
X104211677Y-48833892D01*
X104079675Y-48892663D01*
X104009308Y-48902097D01*
X103945011Y-48871990D01*
X103939332Y-48866651D01*
X103014351Y-47941670D01*
X102980325Y-47879358D01*
X102985390Y-47808543D01*
X103027937Y-47751707D01*
X103094457Y-47726896D01*
X103117054Y-47727312D01*
X103166014Y-47732631D01*
X103172828Y-47733000D01*
X103897885Y-47733000D01*
X103913124Y-47728525D01*
X103914329Y-47727135D01*
X103916000Y-47719452D01*
X103916000Y-47714884D01*
X104424000Y-47714884D01*
X104428475Y-47730123D01*
X104429865Y-47731328D01*
X104437548Y-47732999D01*
X105167169Y-47732999D01*
X105173990Y-47732629D01*
X105224852Y-47727105D01*
X105240104Y-47723479D01*
X105360554Y-47678324D01*
X105376149Y-47669786D01*
X105478224Y-47593285D01*
X105490785Y-47580724D01*
X105567286Y-47478649D01*
X105575824Y-47463054D01*
X105620978Y-47342606D01*
X105624605Y-47327351D01*
X105630131Y-47276486D01*
X105630500Y-47269672D01*
X105630500Y-46497115D01*
X105626025Y-46481876D01*
X105624635Y-46480671D01*
X105616952Y-46479000D01*
X104442115Y-46479000D01*
X104426876Y-46483475D01*
X104425671Y-46484865D01*
X104424000Y-46492548D01*
X104424000Y-47714884D01*
X103916000Y-47714884D01*
X103916000Y-45952885D01*
X104424000Y-45952885D01*
X104428475Y-45968124D01*
X104429865Y-45969329D01*
X104437548Y-45971000D01*
X105612384Y-45971000D01*
X105627623Y-45966525D01*
X105628828Y-45965135D01*
X105630499Y-45957452D01*
X105630499Y-45180331D01*
X105630129Y-45173510D01*
X105624605Y-45122648D01*
X105620979Y-45107396D01*
X105575824Y-44986946D01*
X105567286Y-44971351D01*
X105490785Y-44869276D01*
X105478224Y-44856715D01*
X105376149Y-44780214D01*
X105360554Y-44771676D01*
X105240106Y-44726522D01*
X105224851Y-44722895D01*
X105173986Y-44717369D01*
X105167172Y-44717000D01*
X104442115Y-44717000D01*
X104426876Y-44721475D01*
X104425671Y-44722865D01*
X104424000Y-44730548D01*
X104424000Y-45952885D01*
X103916000Y-45952885D01*
X103916000Y-44735116D01*
X103911525Y-44719877D01*
X103910135Y-44718672D01*
X103902452Y-44717001D01*
X103172831Y-44717001D01*
X103166010Y-44717371D01*
X103115148Y-44722895D01*
X103099896Y-44726521D01*
X102979446Y-44771676D01*
X102963851Y-44780214D01*
X102861776Y-44856715D01*
X102849215Y-44869276D01*
X102772714Y-44971351D01*
X102764176Y-44986945D01*
X102759840Y-44998513D01*
X102717199Y-45055279D01*
X102650638Y-45079980D01*
X102581289Y-45064774D01*
X102563765Y-45053168D01*
X102540466Y-45034767D01*
X102479914Y-44986946D01*
X102445330Y-44959633D01*
X102445325Y-44959630D01*
X102441276Y-44956432D01*
X102436760Y-44953939D01*
X102436757Y-44953937D01*
X102235474Y-44842823D01*
X102235470Y-44842821D01*
X102230950Y-44840326D01*
X102226081Y-44838602D01*
X102226077Y-44838600D01*
X102009360Y-44761856D01*
X102009356Y-44761855D01*
X102004485Y-44760130D01*
X101999392Y-44759223D01*
X101999389Y-44759222D01*
X101773052Y-44718905D01*
X101773046Y-44718904D01*
X101767963Y-44717999D01*
X101680600Y-44716932D01*
X101532907Y-44715127D01*
X101532905Y-44715127D01*
X101527737Y-44715064D01*
X101290256Y-44751404D01*
X101202111Y-44780214D01*
X101066817Y-44824434D01*
X101066811Y-44824437D01*
X101061899Y-44826042D01*
X101057313Y-44828429D01*
X101057309Y-44828431D01*
X100900795Y-44909908D01*
X100848800Y-44936975D01*
X100844657Y-44940085D01*
X100844658Y-44940085D01*
X100694046Y-45053168D01*
X100656680Y-45081223D01*
X100653108Y-45084961D01*
X100568489Y-45173510D01*
X100490699Y-45254912D01*
X100465465Y-45291903D01*
X100410556Y-45336904D01*
X100340032Y-45345075D01*
X100276284Y-45313821D01*
X100255589Y-45289340D01*
X100254311Y-45287365D01*
X100251502Y-45283023D01*
X100089814Y-45105330D01*
X99939914Y-44986946D01*
X99905330Y-44959633D01*
X99905325Y-44959630D01*
X99901276Y-44956432D01*
X99896760Y-44953939D01*
X99896757Y-44953937D01*
X99695474Y-44842823D01*
X99695470Y-44842821D01*
X99690950Y-44840326D01*
X99686081Y-44838602D01*
X99686077Y-44838600D01*
X99469360Y-44761856D01*
X99469356Y-44761855D01*
X99464485Y-44760130D01*
X99459392Y-44759223D01*
X99459389Y-44759222D01*
X99233052Y-44718905D01*
X99233046Y-44718904D01*
X99227963Y-44717999D01*
X99140600Y-44716932D01*
X98992907Y-44715127D01*
X98992905Y-44715127D01*
X98987737Y-44715064D01*
X98750256Y-44751404D01*
X98662111Y-44780214D01*
X98526817Y-44824434D01*
X98526811Y-44824437D01*
X98521899Y-44826042D01*
X98517313Y-44828429D01*
X98517309Y-44828431D01*
X98360795Y-44909908D01*
X98308800Y-44936975D01*
X98304657Y-44940085D01*
X98304658Y-44940085D01*
X98154046Y-45053168D01*
X98116680Y-45081223D01*
X97950699Y-45254912D01*
X97947785Y-45259184D01*
X97818597Y-45448566D01*
X97815314Y-45453378D01*
X97813140Y-45458061D01*
X97813138Y-45458065D01*
X97724514Y-45648990D01*
X97714163Y-45671290D01*
X97649960Y-45902798D01*
X97649411Y-45907935D01*
X97634110Y-46051114D01*
X97629000Y-46098928D01*
X97629000Y-46333402D01*
X97629212Y-46335975D01*
X97629212Y-46335986D01*
X97641207Y-46481876D01*
X97643678Y-46511937D01*
X97644938Y-46516952D01*
X97645783Y-46522059D01*
X97643659Y-46522411D01*
X97640261Y-46584683D01*
X97610573Y-46631746D01*
X97416589Y-46825730D01*
X97402177Y-46838116D01*
X97390582Y-46846649D01*
X97390577Y-46846654D01*
X97384682Y-46850992D01*
X97379943Y-46856570D01*
X97379940Y-46856573D01*
X97350465Y-46891268D01*
X97343535Y-46898784D01*
X97337840Y-46904479D01*
X97335560Y-46907361D01*
X97320219Y-46926751D01*
X97317428Y-46930155D01*
X97308468Y-46940702D01*
X97270167Y-46985785D01*
X97266839Y-46992301D01*
X97263472Y-46997350D01*
X97260305Y-47002479D01*
X97255766Y-47008216D01*
X97224845Y-47074375D01*
X97222942Y-47078269D01*
X97189731Y-47143308D01*
X97187992Y-47150416D01*
X97185893Y-47156059D01*
X97183976Y-47161822D01*
X97180878Y-47168450D01*
X97179388Y-47175612D01*
X97179388Y-47175613D01*
X97166014Y-47239912D01*
X97165044Y-47244196D01*
X97147692Y-47315110D01*
X97147000Y-47326264D01*
X97146964Y-47326262D01*
X97146725Y-47330255D01*
X97146351Y-47334447D01*
X97144860Y-47341615D01*
X97145058Y-47348932D01*
X97146954Y-47419021D01*
X97147000Y-47422428D01*
X97147000Y-49784512D01*
X97126998Y-49852633D01*
X97073342Y-49899126D01*
X96996850Y-49908176D01*
X96843572Y-49878243D01*
X96834709Y-49877166D01*
X96832000Y-49877100D01*
X96652615Y-49877100D01*
X96637376Y-49881575D01*
X96636171Y-49882965D01*
X96634500Y-49890648D01*
X96634500Y-57712985D01*
X96126500Y-57712985D01*
X96126500Y-49895215D01*
X96122025Y-49879976D01*
X96120635Y-49878771D01*
X96112952Y-49877100D01*
X95980668Y-49877100D01*
X95974692Y-49877385D01*
X95826006Y-49891571D01*
X95814272Y-49893830D01*
X95622901Y-49949972D01*
X95611825Y-49954402D01*
X95434192Y-50045889D01*
X95364473Y-50059298D01*
X95298573Y-50032885D01*
X95257414Y-49975036D01*
X95250500Y-49933873D01*
X95250500Y-41036695D01*
X129477251Y-41036695D01*
X129490110Y-41259715D01*
X129491247Y-41264761D01*
X129491248Y-41264767D01*
X129505606Y-41328475D01*
X129539222Y-41477639D01*
X129623266Y-41684616D01*
X129674942Y-41768944D01*
X129737291Y-41870688D01*
X129739987Y-41875088D01*
X129886250Y-42043938D01*
X130058126Y-42186632D01*
X130251000Y-42299338D01*
X130459692Y-42379030D01*
X130464760Y-42380061D01*
X130464763Y-42380062D01*
X130572017Y-42401883D01*
X130678597Y-42423567D01*
X130683772Y-42423757D01*
X130683774Y-42423757D01*
X130896673Y-42431564D01*
X130896677Y-42431564D01*
X130901837Y-42431753D01*
X130906957Y-42431097D01*
X130906959Y-42431097D01*
X131118288Y-42404025D01*
X131118289Y-42404025D01*
X131123416Y-42403368D01*
X131128366Y-42401883D01*
X131332429Y-42340661D01*
X131332434Y-42340659D01*
X131337384Y-42339174D01*
X131537994Y-42240896D01*
X131719860Y-42111173D01*
X131878096Y-41953489D01*
X131937594Y-41870689D01*
X132008453Y-41772077D01*
X132009776Y-41773028D01*
X132056645Y-41729857D01*
X132126580Y-41717625D01*
X132192026Y-41745144D01*
X132219875Y-41776994D01*
X132279987Y-41875088D01*
X132426250Y-42043938D01*
X132598126Y-42186632D01*
X132791000Y-42299338D01*
X132999692Y-42379030D01*
X133004760Y-42380061D01*
X133004763Y-42380062D01*
X133112017Y-42401883D01*
X133218597Y-42423567D01*
X133223772Y-42423757D01*
X133223774Y-42423757D01*
X133436673Y-42431564D01*
X133436677Y-42431564D01*
X133441837Y-42431753D01*
X133446957Y-42431097D01*
X133446959Y-42431097D01*
X133658288Y-42404025D01*
X133658289Y-42404025D01*
X133663416Y-42403368D01*
X133668366Y-42401883D01*
X133872429Y-42340661D01*
X133872434Y-42340659D01*
X133877384Y-42339174D01*
X134077994Y-42240896D01*
X134259860Y-42111173D01*
X134418096Y-41953489D01*
X134477594Y-41870689D01*
X134548453Y-41772077D01*
X134549776Y-41773028D01*
X134596645Y-41729857D01*
X134666580Y-41717625D01*
X134732026Y-41745144D01*
X134759875Y-41776994D01*
X134819987Y-41875088D01*
X134966250Y-42043938D01*
X135138126Y-42186632D01*
X135331000Y-42299338D01*
X135539692Y-42379030D01*
X135544760Y-42380061D01*
X135544763Y-42380062D01*
X135652017Y-42401883D01*
X135758597Y-42423567D01*
X135763772Y-42423757D01*
X135763774Y-42423757D01*
X135976673Y-42431564D01*
X135976677Y-42431564D01*
X135981837Y-42431753D01*
X135986957Y-42431097D01*
X135986959Y-42431097D01*
X136198288Y-42404025D01*
X136198289Y-42404025D01*
X136203416Y-42403368D01*
X136208366Y-42401883D01*
X136412429Y-42340661D01*
X136412434Y-42340659D01*
X136417384Y-42339174D01*
X136617994Y-42240896D01*
X136799860Y-42111173D01*
X136958096Y-41953489D01*
X137017594Y-41870689D01*
X137088453Y-41772077D01*
X137089776Y-41773028D01*
X137136645Y-41729857D01*
X137206580Y-41717625D01*
X137272026Y-41745144D01*
X137299875Y-41776994D01*
X137359987Y-41875088D01*
X137506250Y-42043938D01*
X137678126Y-42186632D01*
X137871000Y-42299338D01*
X138079692Y-42379030D01*
X138084760Y-42380061D01*
X138084763Y-42380062D01*
X138192017Y-42401883D01*
X138298597Y-42423567D01*
X138303772Y-42423757D01*
X138303774Y-42423757D01*
X138516673Y-42431564D01*
X138516677Y-42431564D01*
X138521837Y-42431753D01*
X138526957Y-42431097D01*
X138526959Y-42431097D01*
X138738288Y-42404025D01*
X138738289Y-42404025D01*
X138743416Y-42403368D01*
X138748366Y-42401883D01*
X138952429Y-42340661D01*
X138952434Y-42340659D01*
X138957384Y-42339174D01*
X139157994Y-42240896D01*
X139339860Y-42111173D01*
X139407331Y-42043938D01*
X139448479Y-42002933D01*
X139510851Y-41969017D01*
X139581658Y-41974205D01*
X139638419Y-42016851D01*
X139655401Y-42047954D01*
X139696676Y-42158054D01*
X139705214Y-42173649D01*
X139781715Y-42275724D01*
X139794276Y-42288285D01*
X139896351Y-42364786D01*
X139911946Y-42373324D01*
X140032394Y-42418478D01*
X140047649Y-42422105D01*
X140098514Y-42427631D01*
X140105328Y-42428000D01*
X140727885Y-42428000D01*
X140743124Y-42423525D01*
X140744329Y-42422135D01*
X140746000Y-42414452D01*
X140746000Y-42409884D01*
X141254000Y-42409884D01*
X141258475Y-42425123D01*
X141259865Y-42426328D01*
X141267548Y-42427999D01*
X141894669Y-42427999D01*
X141901490Y-42427629D01*
X141952352Y-42422105D01*
X141967604Y-42418479D01*
X142088054Y-42373324D01*
X142103649Y-42364786D01*
X142205724Y-42288285D01*
X142218285Y-42275724D01*
X142294786Y-42173649D01*
X142303324Y-42158054D01*
X142348478Y-42037606D01*
X142352105Y-42022351D01*
X142357631Y-41971486D01*
X142358000Y-41964672D01*
X142358000Y-41342115D01*
X142353525Y-41326876D01*
X142352135Y-41325671D01*
X142344452Y-41324000D01*
X141272115Y-41324000D01*
X141256876Y-41328475D01*
X141255671Y-41329865D01*
X141254000Y-41337548D01*
X141254000Y-42409884D01*
X140746000Y-42409884D01*
X140746000Y-40797885D01*
X141254000Y-40797885D01*
X141258475Y-40813124D01*
X141259865Y-40814329D01*
X141267548Y-40816000D01*
X142339884Y-40816000D01*
X142355123Y-40811525D01*
X142356328Y-40810135D01*
X142357999Y-40802452D01*
X142357999Y-40175331D01*
X142357629Y-40168510D01*
X142352105Y-40117648D01*
X142348479Y-40102396D01*
X142303324Y-39981946D01*
X142294786Y-39966351D01*
X142218285Y-39864276D01*
X142205724Y-39851715D01*
X142103649Y-39775214D01*
X142088054Y-39766676D01*
X141967606Y-39721522D01*
X141952351Y-39717895D01*
X141901486Y-39712369D01*
X141894672Y-39712000D01*
X141272115Y-39712000D01*
X141256876Y-39716475D01*
X141255671Y-39717865D01*
X141254000Y-39725548D01*
X141254000Y-40797885D01*
X140746000Y-40797885D01*
X140746000Y-39730116D01*
X140741525Y-39714877D01*
X140740135Y-39713672D01*
X140732452Y-39712001D01*
X140105331Y-39712001D01*
X140098510Y-39712371D01*
X140047648Y-39717895D01*
X140032396Y-39721521D01*
X139911946Y-39766676D01*
X139896351Y-39775214D01*
X139794276Y-39851715D01*
X139781715Y-39864276D01*
X139705214Y-39966351D01*
X139696676Y-39981946D01*
X139655297Y-40092322D01*
X139612655Y-40149087D01*
X139546093Y-40173786D01*
X139476744Y-40158578D01*
X139444121Y-40132891D01*
X139393151Y-40076876D01*
X139393145Y-40076870D01*
X139389670Y-40073051D01*
X139385619Y-40069852D01*
X139385615Y-40069848D01*
X139218414Y-39937800D01*
X139218410Y-39937798D01*
X139214359Y-39934598D01*
X139018789Y-39826638D01*
X139013920Y-39824914D01*
X139013916Y-39824912D01*
X138813087Y-39753795D01*
X138813083Y-39753794D01*
X138808212Y-39752069D01*
X138803119Y-39751162D01*
X138803116Y-39751161D01*
X138593373Y-39713800D01*
X138593367Y-39713799D01*
X138588284Y-39712894D01*
X138514452Y-39711992D01*
X138370081Y-39710228D01*
X138370079Y-39710228D01*
X138364911Y-39710165D01*
X138144091Y-39743955D01*
X137931756Y-39813357D01*
X137733607Y-39916507D01*
X137729474Y-39919610D01*
X137729471Y-39919612D01*
X137646450Y-39981946D01*
X137554965Y-40050635D01*
X137400629Y-40212138D01*
X137293201Y-40369621D01*
X137238293Y-40414621D01*
X137167768Y-40422792D01*
X137104021Y-40391538D01*
X137083324Y-40367054D01*
X137002822Y-40242617D01*
X137002820Y-40242614D01*
X137000014Y-40238277D01*
X136849670Y-40073051D01*
X136845619Y-40069852D01*
X136845615Y-40069848D01*
X136678414Y-39937800D01*
X136678410Y-39937798D01*
X136674359Y-39934598D01*
X136478789Y-39826638D01*
X136473920Y-39824914D01*
X136473916Y-39824912D01*
X136273087Y-39753795D01*
X136273083Y-39753794D01*
X136268212Y-39752069D01*
X136263119Y-39751162D01*
X136263116Y-39751161D01*
X136053373Y-39713800D01*
X136053367Y-39713799D01*
X136048284Y-39712894D01*
X135974452Y-39711992D01*
X135830081Y-39710228D01*
X135830079Y-39710228D01*
X135824911Y-39710165D01*
X135604091Y-39743955D01*
X135391756Y-39813357D01*
X135193607Y-39916507D01*
X135189474Y-39919610D01*
X135189471Y-39919612D01*
X135106450Y-39981946D01*
X135014965Y-40050635D01*
X134860629Y-40212138D01*
X134753201Y-40369621D01*
X134698293Y-40414621D01*
X134627768Y-40422792D01*
X134564021Y-40391538D01*
X134543324Y-40367054D01*
X134462822Y-40242617D01*
X134462820Y-40242614D01*
X134460014Y-40238277D01*
X134309670Y-40073051D01*
X134305619Y-40069852D01*
X134305615Y-40069848D01*
X134138414Y-39937800D01*
X134138410Y-39937798D01*
X134134359Y-39934598D01*
X133938789Y-39826638D01*
X133933920Y-39824914D01*
X133933916Y-39824912D01*
X133733087Y-39753795D01*
X133733083Y-39753794D01*
X133728212Y-39752069D01*
X133723119Y-39751162D01*
X133723116Y-39751161D01*
X133513373Y-39713800D01*
X133513367Y-39713799D01*
X133508284Y-39712894D01*
X133434452Y-39711992D01*
X133290081Y-39710228D01*
X133290079Y-39710228D01*
X133284911Y-39710165D01*
X133064091Y-39743955D01*
X132851756Y-39813357D01*
X132653607Y-39916507D01*
X132649474Y-39919610D01*
X132649471Y-39919612D01*
X132566450Y-39981946D01*
X132474965Y-40050635D01*
X132320629Y-40212138D01*
X132213201Y-40369621D01*
X132158293Y-40414621D01*
X132087768Y-40422792D01*
X132024021Y-40391538D01*
X132003324Y-40367054D01*
X131922822Y-40242617D01*
X131922820Y-40242614D01*
X131920014Y-40238277D01*
X131769670Y-40073051D01*
X131765619Y-40069852D01*
X131765615Y-40069848D01*
X131598414Y-39937800D01*
X131598410Y-39937798D01*
X131594359Y-39934598D01*
X131398789Y-39826638D01*
X131393920Y-39824914D01*
X131393916Y-39824912D01*
X131193087Y-39753795D01*
X131193083Y-39753794D01*
X131188212Y-39752069D01*
X131183119Y-39751162D01*
X131183116Y-39751161D01*
X130973373Y-39713800D01*
X130973367Y-39713799D01*
X130968284Y-39712894D01*
X130894452Y-39711992D01*
X130750081Y-39710228D01*
X130750079Y-39710228D01*
X130744911Y-39710165D01*
X130524091Y-39743955D01*
X130311756Y-39813357D01*
X130113607Y-39916507D01*
X130109474Y-39919610D01*
X130109471Y-39919612D01*
X130026450Y-39981946D01*
X129934965Y-40050635D01*
X129780629Y-40212138D01*
X129654743Y-40396680D01*
X129560688Y-40599305D01*
X129500989Y-40814570D01*
X129477251Y-41036695D01*
X95250500Y-41036695D01*
X95250500Y-37718500D01*
X95270502Y-37650379D01*
X95324158Y-37603886D01*
X95376500Y-37592500D01*
X149733500Y-37592500D01*
X149801621Y-37612502D01*
G37*
%TD.AperFunction*%
%TD*%
M02*
