%TF.GenerationSoftware,KiCad,Pcbnew,6.0.7-f9a2dced07~116~ubuntu22.04.1*%
%TF.CreationDate,2022-08-22T18:57:46+02:00*%
%TF.ProjectId,First,46697273-742e-46b6-9963-61645f706362,rev?*%
%TF.SameCoordinates,Original*%
%TF.FileFunction,Paste,Top*%
%TF.FilePolarity,Positive*%
%FSLAX46Y46*%
G04 Gerber Fmt 4.6, Leading zero omitted, Abs format (unit mm)*
G04 Created by KiCad (PCBNEW 6.0.7-f9a2dced07~116~ubuntu22.04.1) date 2022-08-22 18:57:46*
%MOMM*%
%LPD*%
G01*
G04 APERTURE LIST*
G04 Aperture macros list*
%AMRoundRect*
0 Rectangle with rounded corners*
0 $1 Rounding radius*
0 $2 $3 $4 $5 $6 $7 $8 $9 X,Y pos of 4 corners*
0 Add a 4 corners polygon primitive as box body*
4,1,4,$2,$3,$4,$5,$6,$7,$8,$9,$2,$3,0*
0 Add four circle primitives for the rounded corners*
1,1,$1+$1,$2,$3*
1,1,$1+$1,$4,$5*
1,1,$1+$1,$6,$7*
1,1,$1+$1,$8,$9*
0 Add four rect primitives between the rounded corners*
20,1,$1+$1,$2,$3,$4,$5,0*
20,1,$1+$1,$4,$5,$6,$7,0*
20,1,$1+$1,$6,$7,$8,$9,0*
20,1,$1+$1,$8,$9,$2,$3,0*%
G04 Aperture macros list end*
%ADD10RoundRect,0.200000X-0.053033X0.335876X-0.335876X0.053033X0.053033X-0.335876X0.335876X-0.053033X0*%
%ADD11RoundRect,0.200000X0.275000X-0.200000X0.275000X0.200000X-0.275000X0.200000X-0.275000X-0.200000X0*%
%ADD12RoundRect,0.200000X0.053033X-0.335876X0.335876X-0.053033X-0.053033X0.335876X-0.335876X0.053033X0*%
%ADD13RoundRect,0.200000X0.200000X0.275000X-0.200000X0.275000X-0.200000X-0.275000X0.200000X-0.275000X0*%
%ADD14RoundRect,0.225000X-0.225000X-0.250000X0.225000X-0.250000X0.225000X0.250000X-0.225000X0.250000X0*%
%ADD15RoundRect,0.200000X-0.200000X-0.275000X0.200000X-0.275000X0.200000X0.275000X-0.200000X0.275000X0*%
%ADD16RoundRect,0.200000X-0.275000X0.200000X-0.275000X-0.200000X0.275000X-0.200000X0.275000X0.200000X0*%
%ADD17RoundRect,0.225000X0.225000X0.250000X-0.225000X0.250000X-0.225000X-0.250000X0.225000X-0.250000X0*%
%ADD18R,5.500000X2.000000*%
%ADD19RoundRect,0.225000X-0.250000X0.225000X-0.250000X-0.225000X0.250000X-0.225000X0.250000X0.225000X0*%
%ADD20RoundRect,0.225000X-0.335876X-0.017678X-0.017678X-0.335876X0.335876X0.017678X0.017678X0.335876X0*%
%ADD21RoundRect,0.250000X-0.275000X-0.275000X0.275000X-0.275000X0.275000X0.275000X-0.275000X0.275000X0*%
%ADD22RoundRect,0.062500X-0.350000X-0.062500X0.350000X-0.062500X0.350000X0.062500X-0.350000X0.062500X0*%
%ADD23RoundRect,0.062500X-0.062500X-0.350000X0.062500X-0.350000X0.062500X0.350000X-0.062500X0.350000X0*%
%ADD24RoundRect,0.250000X-0.275000X0.275000X-0.275000X-0.275000X0.275000X-0.275000X0.275000X0.275000X0*%
%ADD25RoundRect,0.062500X-0.062500X0.350000X-0.062500X-0.350000X0.062500X-0.350000X0.062500X0.350000X0*%
%ADD26RoundRect,0.062500X-0.350000X0.062500X-0.350000X-0.062500X0.350000X-0.062500X0.350000X0.062500X0*%
%ADD27RoundRect,0.250000X-0.388909X0.000000X0.000000X-0.388909X0.388909X0.000000X0.000000X0.388909X0*%
%ADD28RoundRect,0.062500X-0.291682X0.203293X0.203293X-0.291682X0.291682X-0.203293X-0.203293X0.291682X0*%
%ADD29RoundRect,0.062500X-0.291682X-0.203293X-0.203293X-0.291682X0.291682X0.203293X0.203293X0.291682X0*%
%ADD30R,1.358900X0.508000*%
%ADD31R,0.508000X1.358900*%
%ADD32RoundRect,0.200000X0.335876X0.053033X0.053033X0.335876X-0.335876X-0.053033X-0.053033X-0.335876X0*%
%ADD33RoundRect,0.243750X0.243750X0.456250X-0.243750X0.456250X-0.243750X-0.456250X0.243750X-0.456250X0*%
G04 APERTURE END LIST*
D10*
%TO.C,R12*%
X125533363Y-65326637D03*
X124366637Y-66493363D03*
%TD*%
D11*
%TO.C,R16*%
X127490000Y-52755000D03*
X127490000Y-51105000D03*
%TD*%
D12*
%TO.C,R8*%
X122236637Y-68613363D03*
X123403363Y-67446637D03*
%TD*%
D11*
%TO.C,R2*%
X115150000Y-66815000D03*
X115150000Y-65165000D03*
%TD*%
D13*
%TO.C,R22*%
X134425000Y-70358000D03*
X132775000Y-70358000D03*
%TD*%
D14*
%TO.C,C10*%
X125975000Y-54200000D03*
X127525000Y-54200000D03*
%TD*%
D13*
%TO.C,R11*%
X125525000Y-58750000D03*
X123875000Y-58750000D03*
%TD*%
D14*
%TO.C,C8*%
X123915000Y-55720000D03*
X125465000Y-55720000D03*
%TD*%
%TO.C,C12*%
X113425000Y-42400000D03*
X114975000Y-42400000D03*
%TD*%
D15*
%TO.C,R21*%
X113983000Y-74676000D03*
X115633000Y-74676000D03*
%TD*%
D16*
%TO.C,R18*%
X127490000Y-48075000D03*
X127490000Y-49725000D03*
%TD*%
%TO.C,R1*%
X113590000Y-65145000D03*
X113590000Y-66795000D03*
%TD*%
D17*
%TO.C,C11*%
X121655000Y-51170000D03*
X120105000Y-51170000D03*
%TD*%
D16*
%TO.C,R7*%
X109090000Y-50925000D03*
X109090000Y-52575000D03*
%TD*%
D18*
%TO.C,Y1*%
X110750000Y-46700000D03*
X120250000Y-46700000D03*
%TD*%
D19*
%TO.C,C9*%
X104520000Y-50695000D03*
X104520000Y-52245000D03*
%TD*%
D17*
%TO.C,C13*%
X117975000Y-42400000D03*
X116425000Y-42400000D03*
%TD*%
D19*
%TO.C,C2*%
X102950000Y-50705000D03*
X102950000Y-52255000D03*
%TD*%
D16*
%TO.C,R24*%
X136500000Y-46875000D03*
X136500000Y-48525000D03*
%TD*%
D11*
%TO.C,R9*%
X126960000Y-60345000D03*
X126960000Y-58695000D03*
%TD*%
D13*
%TO.C,R15*%
X125525000Y-57240000D03*
X123875000Y-57240000D03*
%TD*%
D20*
%TO.C,C7*%
X123341992Y-63231992D03*
X124438008Y-64328008D03*
%TD*%
D13*
%TO.C,R5*%
X109165000Y-54050000D03*
X107515000Y-54050000D03*
%TD*%
D21*
%TO.C,U4*%
X130490000Y-58650000D03*
X130490000Y-57350000D03*
X131790000Y-57350000D03*
X131790000Y-58650000D03*
D22*
X129202500Y-56750000D03*
X129202500Y-57250000D03*
X129202500Y-57750000D03*
X129202500Y-58250000D03*
X129202500Y-58750000D03*
X129202500Y-59250000D03*
D23*
X129890000Y-59937500D03*
X130390000Y-59937500D03*
X130890000Y-59937500D03*
X131390000Y-59937500D03*
X131890000Y-59937500D03*
X132390000Y-59937500D03*
D22*
X133077500Y-59250000D03*
X133077500Y-58750000D03*
X133077500Y-58250000D03*
X133077500Y-57750000D03*
X133077500Y-57250000D03*
X133077500Y-56750000D03*
D23*
X132390000Y-56062500D03*
X131890000Y-56062500D03*
X131390000Y-56062500D03*
X130890000Y-56062500D03*
X130390000Y-56062500D03*
X129890000Y-56062500D03*
%TD*%
D24*
%TO.C,U1*%
X116550000Y-71650000D03*
X116550000Y-70350000D03*
X115250000Y-70350000D03*
X115250000Y-71650000D03*
D25*
X117150000Y-69062500D03*
X116650000Y-69062500D03*
X116150000Y-69062500D03*
X115650000Y-69062500D03*
X115150000Y-69062500D03*
X114650000Y-69062500D03*
D26*
X113962500Y-69750000D03*
X113962500Y-70250000D03*
X113962500Y-70750000D03*
X113962500Y-71250000D03*
X113962500Y-71750000D03*
X113962500Y-72250000D03*
D25*
X114650000Y-72937500D03*
X115150000Y-72937500D03*
X115650000Y-72937500D03*
X116150000Y-72937500D03*
X116650000Y-72937500D03*
X117150000Y-72937500D03*
D26*
X117837500Y-72250000D03*
X117837500Y-71750000D03*
X117837500Y-71250000D03*
X117837500Y-70750000D03*
X117837500Y-70250000D03*
X117837500Y-69750000D03*
%TD*%
D16*
%TO.C,R3*%
X118170000Y-65145000D03*
X118170000Y-66795000D03*
%TD*%
D27*
%TO.C,U3*%
X126190761Y-70190000D03*
X127110000Y-69270761D03*
X127110000Y-71109239D03*
X128029239Y-70190000D03*
D28*
X126623864Y-67936097D03*
X126270311Y-68289651D03*
X125916757Y-68643204D03*
X125563204Y-68996757D03*
X125209651Y-69350311D03*
X124856097Y-69703864D03*
D29*
X124856097Y-70676136D03*
X125209651Y-71029689D03*
X125563204Y-71383243D03*
X125916757Y-71736796D03*
X126270311Y-72090349D03*
X126623864Y-72443903D03*
D28*
X127596136Y-72443903D03*
X127949689Y-72090349D03*
X128303243Y-71736796D03*
X128656796Y-71383243D03*
X129010349Y-71029689D03*
X129363903Y-70676136D03*
D29*
X129363903Y-69703864D03*
X129010349Y-69350311D03*
X128656796Y-68996757D03*
X128303243Y-68643204D03*
X127949689Y-68289651D03*
X127596136Y-67936097D03*
%TD*%
D16*
%TO.C,R23*%
X134800000Y-56575000D03*
X134800000Y-58225000D03*
%TD*%
%TO.C,R13*%
X126960000Y-55645000D03*
X126960000Y-57295000D03*
%TD*%
D11*
%TO.C,R4*%
X116650000Y-66815000D03*
X116650000Y-65165000D03*
%TD*%
D30*
%TO.C,U2*%
X112426450Y-54400001D03*
X112426450Y-55199999D03*
X112426450Y-56000000D03*
X112426450Y-56800001D03*
X112426450Y-57599999D03*
X112426450Y-58400000D03*
X112426450Y-59199999D03*
X112426450Y-59999999D03*
D31*
X113900001Y-61473550D03*
X114699999Y-61473550D03*
X115500000Y-61473550D03*
X116300001Y-61473550D03*
X117099999Y-61473550D03*
X117900000Y-61473550D03*
X118699999Y-61473550D03*
X119499999Y-61473550D03*
D30*
X120973550Y-59999999D03*
X120973550Y-59200001D03*
X120973550Y-58400000D03*
X120973550Y-57599999D03*
X120973550Y-56800001D03*
X120973550Y-56000000D03*
X120973550Y-55200001D03*
X120973550Y-54400001D03*
D31*
X119499999Y-52926450D03*
X118700001Y-52926450D03*
X117900000Y-52926450D03*
X117099999Y-52926450D03*
X116300001Y-52926450D03*
X115500000Y-52926450D03*
X114700001Y-52926450D03*
X113900001Y-52926450D03*
%TD*%
D17*
%TO.C,C18*%
X107585000Y-52490000D03*
X106035000Y-52490000D03*
%TD*%
D21*
%TO.C,U6*%
X132650000Y-49770000D03*
X132650000Y-51070000D03*
X131350000Y-51070000D03*
X131350000Y-49770000D03*
D22*
X130062500Y-49170000D03*
X130062500Y-49670000D03*
X130062500Y-50170000D03*
X130062500Y-50670000D03*
X130062500Y-51170000D03*
X130062500Y-51670000D03*
D23*
X130750000Y-52357500D03*
X131250000Y-52357500D03*
X131750000Y-52357500D03*
X132250000Y-52357500D03*
X132750000Y-52357500D03*
X133250000Y-52357500D03*
D22*
X133937500Y-51670000D03*
X133937500Y-51170000D03*
X133937500Y-50670000D03*
X133937500Y-50170000D03*
X133937500Y-49670000D03*
X133937500Y-49170000D03*
D23*
X133250000Y-48482500D03*
X132750000Y-48482500D03*
X132250000Y-48482500D03*
X131750000Y-48482500D03*
X131250000Y-48482500D03*
X130750000Y-48482500D03*
%TD*%
D32*
%TO.C,R10*%
X121303363Y-65443363D03*
X120136637Y-64276637D03*
%TD*%
D15*
%TO.C,R6*%
X107515000Y-55550000D03*
X109165000Y-55550000D03*
%TD*%
D32*
%TO.C,R14*%
X122363363Y-64393363D03*
X121196637Y-63226637D03*
%TD*%
D14*
%TO.C,C6*%
X123925000Y-60270000D03*
X125475000Y-60270000D03*
%TD*%
D10*
%TO.C,R19*%
X123783363Y-51616637D03*
X122616637Y-52783363D03*
%TD*%
D33*
%TO.C,D1*%
X134137500Y-65060000D03*
X132262500Y-65060000D03*
%TD*%
D20*
%TO.C,C1*%
X120131992Y-66411992D03*
X121228008Y-67508008D03*
%TD*%
D17*
%TO.C,C3*%
X115175000Y-63700000D03*
X113625000Y-63700000D03*
%TD*%
D10*
%TO.C,R17*%
X124863363Y-52706637D03*
X123696637Y-53873363D03*
%TD*%
D19*
%TO.C,C4*%
X109080000Y-57205000D03*
X109080000Y-58755000D03*
%TD*%
D13*
%TO.C,R20*%
X138725000Y-65040000D03*
X137075000Y-65040000D03*
%TD*%
D14*
%TO.C,C5*%
X116625000Y-63700000D03*
X118175000Y-63700000D03*
%TD*%
M02*
