%TF.GenerationSoftware,KiCad,Pcbnew,6.0.7-f9a2dced07~116~ubuntu22.04.1*%
%TF.CreationDate,2022-08-22T18:57:46+02:00*%
%TF.ProjectId,First,46697273-742e-46b6-9963-61645f706362,rev?*%
%TF.SameCoordinates,Original*%
%TF.FileFunction,Soldermask,Top*%
%TF.FilePolarity,Negative*%
%FSLAX46Y46*%
G04 Gerber Fmt 4.6, Leading zero omitted, Abs format (unit mm)*
G04 Created by KiCad (PCBNEW 6.0.7-f9a2dced07~116~ubuntu22.04.1) date 2022-08-22 18:57:46*
%MOMM*%
%LPD*%
G01*
G04 APERTURE LIST*
G04 Aperture macros list*
%AMRoundRect*
0 Rectangle with rounded corners*
0 $1 Rounding radius*
0 $2 $3 $4 $5 $6 $7 $8 $9 X,Y pos of 4 corners*
0 Add a 4 corners polygon primitive as box body*
4,1,4,$2,$3,$4,$5,$6,$7,$8,$9,$2,$3,0*
0 Add four circle primitives for the rounded corners*
1,1,$1+$1,$2,$3*
1,1,$1+$1,$4,$5*
1,1,$1+$1,$6,$7*
1,1,$1+$1,$8,$9*
0 Add four rect primitives between the rounded corners*
20,1,$1+$1,$2,$3,$4,$5,0*
20,1,$1+$1,$4,$5,$6,$7,0*
20,1,$1+$1,$6,$7,$8,$9,0*
20,1,$1+$1,$8,$9,$2,$3,0*%
%AMRotRect*
0 Rectangle, with rotation*
0 The origin of the aperture is its center*
0 $1 length*
0 $2 width*
0 $3 Rotation angle, in degrees counterclockwise*
0 Add horizontal line*
21,1,$1,$2,0,0,$3*%
%AMFreePoly0*
4,1,22,0.500000,-0.750000,0.000000,-0.750000,0.000000,-0.745033,-0.079941,-0.743568,-0.215256,-0.701293,-0.333266,-0.622738,-0.424486,-0.514219,-0.481581,-0.384460,-0.499164,-0.250000,-0.500000,-0.250000,-0.500000,0.250000,-0.499164,0.250000,-0.499963,0.256109,-0.478152,0.396186,-0.417904,0.524511,-0.324060,0.630769,-0.204165,0.706417,-0.067858,0.745374,0.000000,0.744959,0.000000,0.750000,
0.500000,0.750000,0.500000,-0.750000,0.500000,-0.750000,$1*%
%AMFreePoly1*
4,1,20,0.000000,0.744959,0.073905,0.744508,0.209726,0.703889,0.328688,0.626782,0.421226,0.519385,0.479903,0.390333,0.500000,0.250000,0.500000,-0.250000,0.499851,-0.262216,0.476331,-0.402017,0.414519,-0.529596,0.319384,-0.634700,0.198574,-0.708877,0.061801,-0.746166,0.000000,-0.745033,0.000000,-0.750000,-0.500000,-0.750000,-0.500000,0.750000,0.000000,0.750000,0.000000,0.744959,
0.000000,0.744959,$1*%
G04 Aperture macros list end*
%ADD10RoundRect,0.200000X-0.053033X0.335876X-0.335876X0.053033X0.053033X-0.335876X0.335876X-0.053033X0*%
%ADD11RoundRect,0.200000X0.275000X-0.200000X0.275000X0.200000X-0.275000X0.200000X-0.275000X-0.200000X0*%
%ADD12RoundRect,0.200000X0.053033X-0.335876X0.335876X-0.053033X-0.053033X0.335876X-0.335876X0.053033X0*%
%ADD13RoundRect,0.200000X0.200000X0.275000X-0.200000X0.275000X-0.200000X-0.275000X0.200000X-0.275000X0*%
%ADD14RoundRect,0.225000X-0.225000X-0.250000X0.225000X-0.250000X0.225000X0.250000X-0.225000X0.250000X0*%
%ADD15R,1.700000X1.700000*%
%ADD16O,1.700000X1.700000*%
%ADD17RoundRect,0.200000X-0.200000X-0.275000X0.200000X-0.275000X0.200000X0.275000X-0.200000X0.275000X0*%
%ADD18RoundRect,0.200000X-0.275000X0.200000X-0.275000X-0.200000X0.275000X-0.200000X0.275000X0.200000X0*%
%ADD19RoundRect,0.225000X0.225000X0.250000X-0.225000X0.250000X-0.225000X-0.250000X0.225000X-0.250000X0*%
%ADD20R,5.500000X2.000000*%
%ADD21RoundRect,0.225000X-0.250000X0.225000X-0.250000X-0.225000X0.250000X-0.225000X0.250000X0.225000X0*%
%ADD22R,1.905000X2.000000*%
%ADD23O,1.905000X2.000000*%
%ADD24RoundRect,0.225000X-0.335876X-0.017678X-0.017678X-0.335876X0.335876X0.017678X0.017678X0.335876X0*%
%ADD25RoundRect,0.062500X-0.350000X-0.062500X0.350000X-0.062500X0.350000X0.062500X-0.350000X0.062500X0*%
%ADD26RoundRect,0.062500X-0.062500X-0.350000X0.062500X-0.350000X0.062500X0.350000X-0.062500X0.350000X0*%
%ADD27R,2.600000X2.600000*%
%ADD28RoundRect,0.062500X-0.062500X0.350000X-0.062500X-0.350000X0.062500X-0.350000X0.062500X0.350000X0*%
%ADD29RoundRect,0.062500X-0.350000X0.062500X-0.350000X-0.062500X0.350000X-0.062500X0.350000X0.062500X0*%
%ADD30RoundRect,0.062500X-0.291682X0.203293X0.203293X-0.291682X0.291682X-0.203293X-0.203293X0.291682X0*%
%ADD31RoundRect,0.062500X-0.291682X-0.203293X-0.203293X-0.291682X0.291682X0.203293X0.203293X0.291682X0*%
%ADD32RotRect,2.600000X2.600000X315.000000*%
%ADD33R,1.358900X0.508000*%
%ADD34R,0.508000X1.358900*%
%ADD35RoundRect,0.200000X0.335876X0.053033X0.053033X0.335876X-0.335876X-0.053033X-0.053033X-0.335876X0*%
%ADD36RoundRect,0.243750X0.243750X0.456250X-0.243750X0.456250X-0.243750X-0.456250X0.243750X-0.456250X0*%
%ADD37FreePoly0,0.000000*%
%ADD38FreePoly1,0.000000*%
%ADD39C,1.450000*%
%ADD40O,1.900000X1.200000*%
G04 APERTURE END LIST*
D10*
%TO.C,R12*%
X125533363Y-65326637D03*
X124366637Y-66493363D03*
%TD*%
D11*
%TO.C,R16*%
X127490000Y-52755000D03*
X127490000Y-51105000D03*
%TD*%
D12*
%TO.C,R8*%
X122236637Y-68613363D03*
X123403363Y-67446637D03*
%TD*%
D11*
%TO.C,R2*%
X115150000Y-66815000D03*
X115150000Y-65165000D03*
%TD*%
D13*
%TO.C,R22*%
X134425000Y-70358000D03*
X132775000Y-70358000D03*
%TD*%
D14*
%TO.C,C10*%
X125975000Y-54200000D03*
X127525000Y-54200000D03*
%TD*%
D15*
%TO.C,J2*%
X145000000Y-70000000D03*
D16*
X145000000Y-67460000D03*
X145000000Y-64920000D03*
X145000000Y-62380000D03*
X145000000Y-59840000D03*
%TD*%
D13*
%TO.C,R11*%
X125525000Y-58750000D03*
X123875000Y-58750000D03*
%TD*%
D14*
%TO.C,C8*%
X123915000Y-55720000D03*
X125465000Y-55720000D03*
%TD*%
%TO.C,C12*%
X113425000Y-42400000D03*
X114975000Y-42400000D03*
%TD*%
D17*
%TO.C,R21*%
X113983000Y-74676000D03*
X115633000Y-74676000D03*
%TD*%
D18*
%TO.C,R18*%
X127490000Y-48075000D03*
X127490000Y-49725000D03*
%TD*%
%TO.C,R1*%
X113590000Y-65145000D03*
X113590000Y-66795000D03*
%TD*%
D15*
%TO.C,J5*%
X141000000Y-41070000D03*
D16*
X138460000Y-41070000D03*
X135920000Y-41070000D03*
X133380000Y-41070000D03*
X130840000Y-41070000D03*
%TD*%
D19*
%TO.C,C11*%
X121655000Y-51170000D03*
X120105000Y-51170000D03*
%TD*%
D18*
%TO.C,R7*%
X109090000Y-50925000D03*
X109090000Y-52575000D03*
%TD*%
D20*
%TO.C,Y1*%
X110750000Y-46700000D03*
X120250000Y-46700000D03*
%TD*%
D21*
%TO.C,C9*%
X104520000Y-50695000D03*
X104520000Y-52245000D03*
%TD*%
D19*
%TO.C,C13*%
X117975000Y-42400000D03*
X116425000Y-42400000D03*
%TD*%
D21*
%TO.C,C2*%
X102950000Y-50705000D03*
X102950000Y-52255000D03*
%TD*%
D18*
%TO.C,R24*%
X136500000Y-46875000D03*
X136500000Y-48525000D03*
%TD*%
D11*
%TO.C,R9*%
X126960000Y-60345000D03*
X126960000Y-58695000D03*
%TD*%
D22*
%TO.C,U5*%
X104170000Y-46225000D03*
D23*
X101630000Y-46225000D03*
X99090000Y-46225000D03*
%TD*%
D13*
%TO.C,R15*%
X125525000Y-57240000D03*
X123875000Y-57240000D03*
%TD*%
D24*
%TO.C,C7*%
X123341992Y-63231992D03*
X124438008Y-64328008D03*
%TD*%
D13*
%TO.C,R5*%
X109165000Y-54050000D03*
X107515000Y-54050000D03*
%TD*%
D25*
%TO.C,U4*%
X129202500Y-56750000D03*
X129202500Y-57250000D03*
X129202500Y-57750000D03*
X129202500Y-58250000D03*
X129202500Y-58750000D03*
X129202500Y-59250000D03*
D26*
X129890000Y-59937500D03*
X130390000Y-59937500D03*
X130890000Y-59937500D03*
X131390000Y-59937500D03*
X131890000Y-59937500D03*
X132390000Y-59937500D03*
D25*
X133077500Y-59250000D03*
X133077500Y-58750000D03*
X133077500Y-58250000D03*
X133077500Y-57750000D03*
X133077500Y-57250000D03*
X133077500Y-56750000D03*
D26*
X132390000Y-56062500D03*
X131890000Y-56062500D03*
X131390000Y-56062500D03*
X130890000Y-56062500D03*
X130390000Y-56062500D03*
X129890000Y-56062500D03*
D27*
X131140000Y-58000000D03*
%TD*%
D28*
%TO.C,U1*%
X117150000Y-69062500D03*
X116650000Y-69062500D03*
X116150000Y-69062500D03*
X115650000Y-69062500D03*
X115150000Y-69062500D03*
X114650000Y-69062500D03*
D29*
X113962500Y-69750000D03*
X113962500Y-70250000D03*
X113962500Y-70750000D03*
X113962500Y-71250000D03*
X113962500Y-71750000D03*
X113962500Y-72250000D03*
D28*
X114650000Y-72937500D03*
X115150000Y-72937500D03*
X115650000Y-72937500D03*
X116150000Y-72937500D03*
X116650000Y-72937500D03*
X117150000Y-72937500D03*
D29*
X117837500Y-72250000D03*
X117837500Y-71750000D03*
X117837500Y-71250000D03*
X117837500Y-70750000D03*
X117837500Y-70250000D03*
X117837500Y-69750000D03*
D27*
X115900000Y-71000000D03*
%TD*%
D18*
%TO.C,R3*%
X118170000Y-65145000D03*
X118170000Y-66795000D03*
%TD*%
D30*
%TO.C,U3*%
X126623864Y-67936097D03*
X126270311Y-68289651D03*
X125916757Y-68643204D03*
X125563204Y-68996757D03*
X125209651Y-69350311D03*
X124856097Y-69703864D03*
D31*
X124856097Y-70676136D03*
X125209651Y-71029689D03*
X125563204Y-71383243D03*
X125916757Y-71736796D03*
X126270311Y-72090349D03*
X126623864Y-72443903D03*
D30*
X127596136Y-72443903D03*
X127949689Y-72090349D03*
X128303243Y-71736796D03*
X128656796Y-71383243D03*
X129010349Y-71029689D03*
X129363903Y-70676136D03*
D31*
X129363903Y-69703864D03*
X129010349Y-69350311D03*
X128656796Y-68996757D03*
X128303243Y-68643204D03*
X127949689Y-68289651D03*
X127596136Y-67936097D03*
D32*
X127110000Y-70190000D03*
%TD*%
D18*
%TO.C,R23*%
X134800000Y-56575000D03*
X134800000Y-58225000D03*
%TD*%
%TO.C,R13*%
X126960000Y-55645000D03*
X126960000Y-57295000D03*
%TD*%
D11*
%TO.C,R4*%
X116650000Y-66815000D03*
X116650000Y-65165000D03*
%TD*%
D33*
%TO.C,U2*%
X112426450Y-54400001D03*
X112426450Y-55199999D03*
X112426450Y-56000000D03*
X112426450Y-56800001D03*
X112426450Y-57599999D03*
X112426450Y-58400000D03*
X112426450Y-59199999D03*
X112426450Y-59999999D03*
D34*
X113900001Y-61473550D03*
X114699999Y-61473550D03*
X115500000Y-61473550D03*
X116300001Y-61473550D03*
X117099999Y-61473550D03*
X117900000Y-61473550D03*
X118699999Y-61473550D03*
X119499999Y-61473550D03*
D33*
X120973550Y-59999999D03*
X120973550Y-59200001D03*
X120973550Y-58400000D03*
X120973550Y-57599999D03*
X120973550Y-56800001D03*
X120973550Y-56000000D03*
X120973550Y-55200001D03*
X120973550Y-54400001D03*
D34*
X119499999Y-52926450D03*
X118700001Y-52926450D03*
X117900000Y-52926450D03*
X117099999Y-52926450D03*
X116300001Y-52926450D03*
X115500000Y-52926450D03*
X114700001Y-52926450D03*
X113900001Y-52926450D03*
%TD*%
D19*
%TO.C,C18*%
X107585000Y-52490000D03*
X106035000Y-52490000D03*
%TD*%
D25*
%TO.C,U6*%
X130062500Y-49170000D03*
X130062500Y-49670000D03*
X130062500Y-50170000D03*
X130062500Y-50670000D03*
X130062500Y-51170000D03*
X130062500Y-51670000D03*
D26*
X130750000Y-52357500D03*
X131250000Y-52357500D03*
X131750000Y-52357500D03*
X132250000Y-52357500D03*
X132750000Y-52357500D03*
X133250000Y-52357500D03*
D25*
X133937500Y-51670000D03*
X133937500Y-51170000D03*
X133937500Y-50670000D03*
X133937500Y-50170000D03*
X133937500Y-49670000D03*
X133937500Y-49170000D03*
D26*
X133250000Y-48482500D03*
X132750000Y-48482500D03*
X132250000Y-48482500D03*
X131750000Y-48482500D03*
X131250000Y-48482500D03*
X130750000Y-48482500D03*
D27*
X132000000Y-50420000D03*
%TD*%
D35*
%TO.C,R10*%
X121303363Y-65443363D03*
X120136637Y-64276637D03*
%TD*%
D17*
%TO.C,R6*%
X107515000Y-55550000D03*
X109165000Y-55550000D03*
%TD*%
D15*
%TO.C,J4*%
X145000000Y-55000000D03*
D16*
X145000000Y-52460000D03*
X145000000Y-49920000D03*
X145000000Y-47380000D03*
X145000000Y-44840000D03*
%TD*%
D35*
%TO.C,R14*%
X122363363Y-64393363D03*
X121196637Y-63226637D03*
%TD*%
D14*
%TO.C,C6*%
X123925000Y-60270000D03*
X125475000Y-60270000D03*
%TD*%
D10*
%TO.C,R19*%
X123783363Y-51616637D03*
X122616637Y-52783363D03*
%TD*%
D15*
%TO.C,J1*%
X141000000Y-73900000D03*
D16*
X138460000Y-73900000D03*
X135920000Y-73900000D03*
X133380000Y-73900000D03*
X130840000Y-73900000D03*
%TD*%
D36*
%TO.C,D1*%
X134137500Y-65060000D03*
X132262500Y-65060000D03*
%TD*%
D24*
%TO.C,C1*%
X120131992Y-66411992D03*
X121228008Y-67508008D03*
%TD*%
D19*
%TO.C,C3*%
X115175000Y-63700000D03*
X113625000Y-63700000D03*
%TD*%
D37*
%TO.C,JP1*%
X125440000Y-45330000D03*
D38*
X126740000Y-45330000D03*
%TD*%
D10*
%TO.C,R17*%
X124863363Y-52706637D03*
X123696637Y-53873363D03*
%TD*%
D21*
%TO.C,C4*%
X109080000Y-57205000D03*
X109080000Y-58755000D03*
%TD*%
D13*
%TO.C,R20*%
X138725000Y-65040000D03*
X137075000Y-65040000D03*
%TD*%
D14*
%TO.C,C5*%
X116625000Y-63700000D03*
X118175000Y-63700000D03*
%TD*%
D39*
%TO.C,J3*%
X99080500Y-51985100D03*
X99080500Y-56985100D03*
D40*
X96380500Y-50985100D03*
X96380500Y-57985100D03*
%TD*%
M02*
