M48
; DRILL file {KiCad 6.0.7-f9a2dced07~116~ubuntu22.04.1} date pon, 22 sie 2022, 18:57:59
; FORMAT={-:-/ absolute / metric / decimal}
; #@! TF.CreationDate,2022-08-22T18:57:59+02:00
; #@! TF.GenerationSoftware,Kicad,Pcbnew,6.0.7-f9a2dced07~116~ubuntu22.04.1
; #@! TF.FileFunction,Plated,1,2,PTH
FMAT,2
METRIC
; #@! TA.AperFunction,Plated,PTH,ViaDrill
T1C0.400
; #@! TA.AperFunction,Plated,PTH,ComponentDrill
T2C0.600
; #@! TA.AperFunction,Plated,PTH,ComponentDrill
T3C0.850
; #@! TA.AperFunction,Plated,PTH,ComponentDrill
T4C1.000
; #@! TA.AperFunction,Plated,PTH,ComponentDrill
T5C1.100
%
G90
G05
T1
X99.314Y-64.008
X99.822Y-42.418
X99.822Y-69.342
X99.822Y-74.422
X103.124Y-57.912
X103.886Y-66.548
X104.5Y-49.7
X104.648Y-71.882
X105.0Y-54.31
X105.0Y-55.309
X105.156Y-62.738
X106.172Y-39.37
X106.172Y-48.768
X107.95Y-43.942
X107.95Y-58.42
X107.95Y-77.216
X109.09Y-49.97
X110.49Y-56.134
X110.49Y-68.326
X110.744Y-61.468
X111.2Y-74.8
X111.76Y-51.816
X112.014Y-48.768
X112.014Y-69.85
X112.776Y-39.37
X113.284Y-44.704
X115.062Y-58.928
X115.824Y-56.134
X115.824Y-71.12
X116.078Y-46.736
X117.094Y-51.308
X117.348Y-44.45
X117.348Y-76.2
X117.856Y-39.624
X118.356Y-62.753
X118.364Y-57.912
X119.1Y-49.97
X119.38Y-65.278
X119.38Y-68.326
X120.904Y-50.038
X121.158Y-70.358
X122.174Y-42.672
X122.174Y-66.802
X123.444Y-69.342
X123.698Y-65.278
X123.698Y-71.794
X123.952Y-50.038
X125.2Y-73.4
X125.222Y-47.752
X125.222Y-63.5
X125.476Y-39.37
X125.984Y-52.07
X126.238Y-76.962
X127.0Y-66.294
X127.0Y-70.358
X127.254Y-42.926
X127.508Y-61.976
X127.762Y-46.482
X128.016Y-59.182
X128.27Y-55.626
X128.778Y-52.578
X128.9Y-73.3
X129.794Y-45.466
X129.794Y-54.102
X130.214Y-61.302
X130.302Y-63.246
X130.81Y-66.802
X131.064Y-53.594
X131.064Y-57.912
X131.9Y-71.9
X132.08Y-50.546
X134.112Y-77.47
X134.5Y-61.2
X135.636Y-43.942
X135.89Y-66.802
X136.144Y-57.15
X136.398Y-72.39
X136.5Y-45.8
X137.922Y-38.1
X137.922Y-62.23
X139.446Y-43.434
X139.446Y-58.166
X139.954Y-54.61
X141.986Y-69.85
X147.574Y-41.91
X148.082Y-64.77
X148.082Y-76.454
X148.844Y-56.134
T3
X99.081Y-51.985
X99.081Y-56.985
T4
X130.84Y-41.07
X130.84Y-73.9
X133.38Y-41.07
X133.38Y-73.9
X135.92Y-41.07
X135.92Y-73.9
X138.46Y-41.07
X138.46Y-73.9
X141.0Y-41.07
X141.0Y-73.9
X145.0Y-44.84
X145.0Y-47.38
X145.0Y-49.92
X145.0Y-52.46
X145.0Y-55.0
X145.0Y-59.84
X145.0Y-62.38
X145.0Y-64.92
X145.0Y-67.46
X145.0Y-70.0
T5
X99.09Y-46.225
X101.63Y-46.225
X104.17Y-46.225
T2
X96.03Y-50.985G85X96.73Y-50.985
G05
X96.73Y-57.985G85X96.03Y-57.985
G05
T0
M30
